<?xml version="1.0" encoding="UTF-8" standalone="no"?>
<svg
   xmlns:dc="http://purl.org/dc/elements/1.1/"
   xmlns:cc="http://creativecommons.org/ns#"
   xmlns:rdf="http://www.w3.org/1999/02/22-rdf-syntax-ns#"
   xmlns:svg="http://www.w3.org/2000/svg"
   xmlns="http://www.w3.org/2000/svg"
   xmlns:sodipodi="http://sodipodi.sourceforge.net/DTD/sodipodi-0.dtd"
   xmlns:inkscape="http://www.inkscape.org/namespaces/inkscape"
   width="160mm"
   height="190mm"
   viewBox="0 0 566.92913 673.22834"
   id="svg4208"
   version="1.1"
   inkscape:version="0.91 r13725"
   sodipodi:docname="nd.svg">
  <sodipodi:namedview
     pagecolor="#ffffff"
     bordercolor="#666666"
     borderopacity="1"
     objecttolerance="10"
     gridtolerance="10"
     guidetolerance="10"
     inkscape:pageopacity="0"
     inkscape:pageshadow="2"
     inkscape:window-width="1366"
     inkscape:window-height="711"
     id="namedview50"
     showgrid="false"
     inkscape:zoom="0.70109941"
     inkscape:cx="430.84841"
     inkscape:cy="338.33805"
     inkscape:window-x="0"
     inkscape:window-y="0"
     inkscape:window-maximized="1"
     inkscape:current-layer="svg4208" />
  <defs
     id="defs4210" />
  <metadata
     id="metadata4213">
    <rdf:RDF>
      <cc:Work
         rdf:about="">
        <dc:format>image/svg+xml</dc:format>
        <dc:type
           rdf:resource="http://purl.org/dc/dcmitype/StillImage" />
        <dc:title />
      </cc:Work>
    </rdf:RDF>
  </metadata>
  <g
     id="compass"
     transform="translate(-16.499833,-400.63366)">
    <path
       style="fill:none;stroke:#ffffff;stroke-width:2.13021708;stroke-linecap:butt;stroke-linejoin:miter;stroke-miterlimit:4;stroke-dasharray:none;stroke-dashoffset:0;stroke-opacity:1"
       d="m 300,453.33612 c 165.09727,0 298.93506,133.85809 298.93506,298.98041 C 598.93504,917.43884 465.09726,1051.2969 300,1051.2969 134.90274,1051.2969 1.0649635,917.43883 1.0649414,752.31653 1.0649414,587.19421 134.90273,453.33612 300,453.33612"
       id="path3845-3" />
    <text
       id="text3055-6"
       y="486.57465"
       x="293.56891"
       style="font-style:normal;font-variant:normal;font-weight:normal;font-stretch:normal;font-size:15.33756256px;line-height:125%;font-family:'Liberation Sans';-inkscape-font-specification:'Liberation Sans';text-align:start;letter-spacing:0px;word-spacing:0px;writing-mode:lr-tb;text-anchor:start;fill:#ffffff;fill-opacity:1;stroke:#ffffff;stroke-opacity:1"
       xml:space="preserve"
       transform="scale(0.99992416,1.0000758)"><tspan
         style="font-size:17.0417366px;stroke:#ffffff;stroke-opacity:1"
         y="486.57465"
         x="293.56891"
         id="tspan3057-7">N</tspan></text>
    <text
       transform="matrix(0.8659596,-0.50003809,0.49996226,0.86609101,0,0)"
       xml:space="preserve"
       style="font-style:normal;font-variant:normal;font-weight:normal;font-stretch:normal;font-size:15.33753395px;line-height:125%;font-family:'Liberation Sans';-inkscape-font-specification:'Liberation Sans';text-align:start;letter-spacing:0px;word-spacing:0px;writing-mode:lr-tb;text-anchor:start;fill:#ffffff;fill-opacity:1;stroke:#ffffff;stroke-opacity:1"
       x="-125.80399"
       y="535.28497"
       id="text3080-5"><tspan
         id="tspan3082-3"
         x="-125.80399"
         y="535.28497"
         style="font-size:17.04169846px;stroke:#ffffff;stroke-opacity:1">33</tspan></text>
    <text
       id="text3084-5"
       y="370.08212"
       x="-510.57104"
       style="font-style:normal;font-variant:normal;font-weight:normal;font-stretch:normal;font-size:15.33757496px;line-height:125%;font-family:'Liberation Sans';-inkscape-font-specification:'Liberation Sans';text-align:start;letter-spacing:0px;word-spacing:0px;writing-mode:lr-tb;text-anchor:start;fill:#ffffff;fill-opacity:1;stroke:#ffffff;stroke-opacity:1"
       xml:space="preserve"
       transform="matrix(0.49996183,-0.86609126,0.86595985,0.50003766,0,0)"><tspan
         style="font-size:17.04174423px;stroke:#ffffff;stroke-opacity:1"
         y="370.08212"
         x="-510.57104"
         id="tspan3086-6">30</tspan></text>
    <text
       transform="matrix(0,-1.0000758,0.99992416,0,0,0)"
       xml:space="preserve"
       style="font-style:normal;font-variant:normal;font-weight:normal;font-stretch:normal;font-size:15.33756828px;line-height:125%;font-family:'Liberation Sans';-inkscape-font-specification:'Liberation Sans';text-align:start;letter-spacing:0px;word-spacing:0px;writing-mode:lr-tb;text-anchor:start;fill:#ffffff;fill-opacity:1;stroke:#ffffff;stroke-opacity:1"
       x="-761.61969"
       y="35.476051"
       id="text3088-2"><tspan
         id="tspan3090-9"
         x="-761.61969"
         y="35.476051"
         style="font-size:17.0417347px;stroke:#ffffff;stroke-opacity:1">W</tspan></text>
    <text
       id="text3092-1"
       y="-378.91388"
       x="-811.17365"
       style="font-style:normal;font-variant:normal;font-weight:normal;font-stretch:normal;font-size:15.33754826px;line-height:125%;font-family:'Liberation Sans';-inkscape-font-specification:'Liberation Sans';text-align:start;letter-spacing:0px;word-spacing:0px;writing-mode:lr-tb;text-anchor:start;fill:#ffffff;fill-opacity:1;stroke:#ffffff;stroke-opacity:1"
       xml:space="preserve"
       transform="matrix(-0.49996226,-0.86609101,0.8659596,-0.50003809,0,0)"><tspan
         style="font-size:17.0417099px;stroke:#ffffff;stroke-opacity:1"
         y="-378.91388"
         x="-811.17365"
         id="tspan3094-2">24</tspan></text>
    <text
       transform="matrix(-0.86595985,-0.50003766,0.49996183,-0.86609126,0,0)"
       xml:space="preserve"
       style="font-style:normal;font-variant:normal;font-weight:normal;font-stretch:normal;font-size:15.33759022px;line-height:125%;font-family:'Liberation Sans';-inkscape-font-specification:'Liberation Sans';text-align:start;letter-spacing:0px;word-spacing:0px;writing-mode:lr-tb;text-anchor:start;fill:#ffffff;fill-opacity:1;stroke:#ffffff;stroke-opacity:1"
       x="-646.09467"
       y="-763.03394"
       id="text3096-7"><tspan
         id="tspan3098-0"
         x="-646.09467"
         y="-763.03394"
         style="font-size:17.04175568px;stroke:#ffffff;stroke-opacity:1">21</tspan></text>
    <text
       id="text3100-9"
       y="-1013.1514"
       x="-305.55142"
       style="font-style:normal;font-variant:normal;font-weight:normal;font-stretch:normal;font-size:15.33757401px;line-height:125%;font-family:'Liberation Sans';-inkscape-font-specification:'Liberation Sans';text-align:start;letter-spacing:0px;word-spacing:0px;writing-mode:lr-tb;text-anchor:start;fill:#ffffff;fill-opacity:1;stroke:#ffffff;stroke-opacity:1"
       xml:space="preserve"
       transform="scale(-0.99992416,-1.0000758)"><tspan
         style="font-size:17.04173851px;stroke:#ffffff;stroke-opacity:1"
         y="-1013.1514"
         x="-305.55142"
         id="tspan3102-3">S</tspan></text>
    <text
       transform="matrix(-0.8659596,0.50003809,-0.49996226,-0.86609101,0,0)"
       xml:space="preserve"
       style="font-style:normal;font-variant:normal;font-weight:normal;font-stretch:normal;font-size:15.3375597px;line-height:125%;font-family:'Liberation Sans';-inkscape-font-specification:'Liberation Sans';text-align:start;letter-spacing:0px;word-spacing:0px;writing-mode:lr-tb;text-anchor:start;fill:#ffffff;fill-opacity:1;stroke:#ffffff;stroke-opacity:1"
       x="107.61672"
       y="-1061.9983"
       id="text3104-6"><tspan
         id="tspan3106-0"
         x="107.61672"
         y="-1061.9983"
         style="font-size:17.04171944px;stroke:#ffffff;stroke-opacity:1">15</tspan></text>
    <text
       id="text3108-6"
       y="-894.76758"
       x="492.25153"
       style="font-style:normal;font-variant:normal;font-weight:normal;font-stretch:normal;font-size:15.33758831px;line-height:125%;font-family:'Liberation Sans';-inkscape-font-specification:'Liberation Sans';text-align:start;letter-spacing:0px;word-spacing:0px;writing-mode:lr-tb;text-anchor:start;fill:#ffffff;fill-opacity:1;stroke:#ffffff;stroke-opacity:1"
       xml:space="preserve"
       transform="matrix(-0.49996183,0.86609126,-0.86595985,-0.50003766,0,0)"><tspan
         style="font-size:17.04174995px;stroke:#ffffff;stroke-opacity:1"
         y="-894.76758"
         x="492.25153"
         id="tspan3110-2">12</tspan></text>
    <text
       transform="matrix(0,1.0000758,-0.99992416,0,0,0)"
       xml:space="preserve"
       style="font-style:normal;font-variant:normal;font-weight:normal;font-stretch:normal;font-size:15.33758068px;line-height:125%;font-family:'Liberation Sans';-inkscape-font-specification:'Liberation Sans';text-align:start;letter-spacing:0px;word-spacing:0px;writing-mode:lr-tb;text-anchor:start;fill:#ffffff;fill-opacity:1;stroke:#ffffff;stroke-opacity:1"
       x="747.49054"
       y="-560.73212"
       id="text3112-6"><tspan
         id="tspan3114-1"
         x="747.49054"
         y="-560.73212"
         style="font-size:17.04174042px;stroke:#ffffff;stroke-opacity:1">E</tspan></text>
    <text
       id="text3116-8"
       y="-145.44206"
       x="796.7287"
       style="font-style:normal;font-variant:normal;font-weight:normal;font-stretch:normal;font-size:15.33756542px;line-height:125%;font-family:'Liberation Sans';-inkscape-font-specification:'Liberation Sans';text-align:start;letter-spacing:0px;word-spacing:0px;writing-mode:lr-tb;text-anchor:start;fill:#ffffff;fill-opacity:1;stroke:#ffffff;stroke-opacity:1"
       xml:space="preserve"
       transform="matrix(0.49996226,0.86609101,-0.8659596,0.50003809,0,0)"><tspan
         style="font-size:17.04172134px;stroke:#ffffff;stroke-opacity:1"
         y="-145.44206"
         x="796.7287"
         id="tspan3118-7">6</tspan></text>
    <text
       transform="matrix(0.86595985,0.50003766,-0.49996183,0.86609126,0,0)"
       xml:space="preserve"
       style="font-style:normal;font-variant:normal;font-weight:normal;font-stretch:normal;font-size:15.3376112px;line-height:125%;font-family:'Liberation Sans';-inkscape-font-specification:'Liberation Sans';text-align:start;letter-spacing:0px;word-spacing:0px;writing-mode:lr-tb;text-anchor:start;fill:#ffffff;fill-opacity:1;stroke:#ffffff;stroke-opacity:1"
       x="631.43744"
       y="239.01701"
       id="text3120-9"><tspan
         id="tspan3122-2"
         x="631.43744"
         y="239.01701"
         style="font-size:17.04177094px;stroke:#ffffff;stroke-opacity:1">3</tspan></text>
    <path
       style="fill:#ffffff;fill-opacity:1;fill-rule:nonzero;stroke:#ffffff;stroke-width:2.13021708;stroke-linecap:butt;stroke-linejoin:miter;stroke-miterlimit:4;stroke-dasharray:none;stroke-dashoffset:0;stroke-opacity:1"
       d="m 300.0691,453.40932 -0.0128,18.71026 c 0.009,0 0.017,0 0.0255,0 z m -51.90264,4.55176 3.17165,18.04644 c 0.009,0 0.017,-0.0128 0.0255,-0.0128 l -3.1976,-18.03325 z m 103.80528,0 -3.33013,18.7631 c 0.0128,0 0.0255,0 0.0383,0 l 3.2905,-18.7631 z m -154.11505,13.48146 6.14307,16.94547 c 0.0128,-0.004 0.0255,-0.009 0.0383,-0.0128 z m 204.42526,0 -6.6739,18.29911 c 0.009,0 0.017,0.009 0.0255,0.0128 l 6.64706,-18.31188 z m -251.64476,22.01448 8.91641,15.48573 c 0.009,-0.004 0.017,-0.009 0.0255,-0.0128 l -8.94325,-15.47209 z m 298.86212,0 -9.97292,17.34256 m -331.55706,12.54112 11.43669,13.66765 c 0.009,-0.009 0.017,-0.017 0.0255,-0.0255 L 107.96844,523.342 Z m 384.19797,0 -13.22509,15.73711 m -407.816541,21.11205 13.63897,11.46484 c 0.0085,-0.009 0.01695,-0.017 0.02547,-0.0255 L 71.124817,560.18986 Z m 441.743641,13.53642 c 0,0.009 0,0.0213 0,0.0255 l 16.13305,-13.562 c -5.32941,4.49254 -10.76105,9.03282 -16.13305,13.53643 z m -471.621973,29.13975 15.469656,8.94418 c 0.0043,-0.009 0.0085,-0.017 0.01279,-0.0255 l -15.483246,-8.91733 z m 517.639693,0 -18.65928,10.76182 c 0,0.009 0,0.017 0,0.0255 l 18.6465,-10.78866 z m -539.650408,47.22666 16.929256,6.18321 c 0.0043,-0.0128 0.0085,-0.0255 0.01279,-0.0383 L 19.23578,650.09358 Z m 561.662398,0 -20.68284,7.51087 c 0,0.0128 0,0.0255 0,0.0383 l 20.67007,-7.55007 z M 5.7567796,700.41053 23.787699,703.60866 c 0,-0.009 0.01277,-0.017 0.01277,-0.0255 L 5.7563476,700.41141 Z m 588.6212404,0 -22.12702,3.88794 c 0,0.0128 0,0.0255 0,0.0383 l 22.12702,-3.92799 z m -18.38238,51.88452 c 0,0.017 0,0.034 0,0.0524 l 22.93644,-0.0255 -22.93644,-0.0255 z m -556.082512,0.0128 -18.7069989,0.0128 18.7069989,0.0128 c 0,-0.009 0,-0.017 0,-0.0255 z m 551.609392,47.87472 c 0,0.0128 0,0.0255 0,0.0383 l 22.8555,4.0081 -22.8555,-4.04772 z M 24.51703,800.89961 5.7567796,804.23025 24.51703,800.93966 c 0,-0.0128 0,-0.0255 0,-0.0383 z m 534.37,45.60971 0,0.0426 22.02478,7.99745 -22.012,-8.04005 z m -521.354083,1.3677 -18.296325,6.67235 18.309105,-6.64678 c 0,0 -0.0085,0 -0.01279,-0.0426 z m 500.884253,42.04516 -0.0427,0.0426 20.49965,11.81083 -20.46983,-11.85343 z m -479.85592,1.83212 -17.313943,10.0213 17.327107,-9.99574 c -0.0043,0 -0.0085,0 -0.01279,-0.0426 z m 452.2504,37.39241 c 0,0 0,0 -0.0427,0.0426 l 18.22902,15.27481 -18.20346,-15.30037 z m -423.950993,2.07073 -15.735018,13.22964 15.761729,-13.19982 c -0.0085,0 -0.01704,-0.0426 -0.02556,-0.0426 z m 390.035393,31.84489 c 0,0 0,0 -0.0425,0.0427 l 15.30104,18.20195 -15.27122,-18.23178 z m -355.394,2.08351 -13.53275,16.14827 13.5595,-16.13549 c -0.009,0 -0.0213,0 -0.0255,0 z m 316.1899,25.53047 -0.0425,0.0426 11.84993,20.46859 -11.81159,-20.49842 z m -276.29418,1.83638 -10.76061,18.66211 10.78745,-18.64933 c -0.009,0 -0.017,0 -0.0255,0 z m 232.88365,18.64931 c -0.0128,0 -0.0255,0 -0.0383,0 l 8.04053,22.0196 -8.00049,-22.0324 z m -188.91547,1.3422 -7.50929,20.6902 7.54934,-20.6775 c -0.0128,0 -0.0255,0 -0.0384,0 z m 142.59827,11.308 c -0.0128,0 -0.0255,0 -0.0383,0 l 4.04668,22.8505 -4.00748,-22.8633 z m -95.91001,0.7286 -3.88778,22.1346 3.92783,-22.1346 c -0.0128,0 -0.0255,0 -0.0383,0 z m 47.98845,3.741 0.0255,22.9441 0.0255,-22.9441 c -0.017,0 -0.034,0 -0.0528,0 z"
       id="path3181-0" />
    <path
       id="path5004-2"
       d="m 273.92352,453.41357 0.78854,9.08863 c 0.004,0 0.009,0 0.0128,0 l -0.80176,-9.08863 z m 52.29244,0 -0.78813,8.88838 c 0.004,0 0.009,0 0.0128,0 l 0.77491,-8.88838 z m 51.49196,9.07499 -2.25829,8.38049 m -153.02957,-8.38049 2.39205,8.95483 c 0,0 0.009,0 0.0128,0 l -2.40568,-8.95483 z m 204.42525,17.88368 -3.59467,7.69833 c 0,0 2.45851,-5.16659 3.59425,-7.69876 m -253.56393,0.0128 3.98234,8.58032 c 0.004,0 0.009,-0.0128 0.0128,-0.0128 l -3.99513,-8.56669 z m -45.28967,26.14316 5.53261,7.93907 c 0.009,-0.004 0.017,-0.009 0.0255,-0.0128 l -5.55945,-7.92587 z m -40.064639,33.61482 6.975847,6.98978 c 0.0043,0 -0.0043,-0.0128 0,-0.0128 l -6.975847,-6.97571 z m -33.609932,40.07114 8.151892,5.72049 c 0.0043,-0.004 0.0098,-0.009 0.01321,-0.0128 L 54.31668,580.2137 Z m 489.353191,1.4968 -4.47738,3.12783 c 0,0 0,0.009 0,0.0128 l 4.47738,-3.14103 z m -515.5058,43.79931 9.073611,4.25011 c 0.0043,-0.009 0.0085,-0.017 0.01277,-0.0255 l -9.087242,-4.22326 z m 541.03239,1.28292 -4.43904,2.05836 c 0,0 0,0.009 0,0.0128 l 4.43904,-2.07158 z m -558.913779,47.86321 9.742447,2.61909 c 0,0 0,-0.009 0,-0.0128 l -9.742447,-2.60588 z m 579.562539,0 -7.6043,2.03154 c 0,0.004 0,0.009 0,0.0128 l 7.59151,-2.04473 z M 1.2086851,726.1668 11.338803,727.06241 c 0,-0.009 0,-0.017 0,-0.0255 l -10.1301179,-0.8688 z m 597.6978349,0 -7.8301,0.68171 c 0,0.004 0,0.009 0,0.0128 l 7.8301,-0.69493 z M 11.338803,777.55792 1.2086851,778.45353 11.338803,777.58477 c 0,-0.009 0,-0.017 0,-0.0255 z m 579.737617,0.21389 c 0,0.004 0,0.009 0,0.0128 l 7.85566,0.68171 -7.85566,-0.69493 z m -571.051252,49.58968 -9.742447,2.6161 9.742447,-2.60332 0,0 z m 562.215792,0.57094 0,0.0426 7.57874,2.01534 -7.57874,-2.04517 z m -544.989607,46.95354 -9.074036,4.23946 9.087243,-4.23946 -0.01278,0 z m 527.493327,0.88625 0,0 7.19534,3.35321 -7.19534,-3.366 z m -502.262692,42.91433 -8.165269,5.72221 8.165269,-5.70942 0,0 z m 476.684982,1.09503 c 0,0 0,0 0,0.0426 l 6.62874,4.62717 -6.61595,-4.65274 z m -32.80711,38.87088 5.84061,5.83724 -5.82697,-5.83724 -0.0128,0 z m -372.82275,31.49979 -5.54582,7.94204 z m 333.81376,1.06944 c -0.004,0 -0.009,0 -0.0128,0 l 4.79774,6.83 -4.78411,-6.84278 z m -290.07435,24.43541 -3.99556,8.594 4.00876,-8.5812 c -0.004,0 -0.009,0 -0.0128,0 z m 246.00095,0.8692 c -0.004,0 -0.009,0 -0.0128,0 l 3.5951,7.6864 -3.58148,-7.6991 z m -198.46536,16.6553 -2.39205,8.9519 2.40525,-8.9519 c -0.004,0 -0.009,0 -0.0128,0 z m 150.63624,0.5582 2.2583,8.3937 -2.24509,-8.3937 c -0.004,0 -0.009,0 -0.0128,0 z m -100.73629,8.3681 -0.78854,9.118 0.80176,-9.118 c -0.004,0 -0.009,0 -0.0128,0 z m 50.70257,0.2003 0.78813,8.9007 -0.76171,-8.9007 c -0.009,0 -0.017,0 -0.0255,0 z"
       style="fill:#ffffff;fill-opacity:1;fill-rule:nonzero;stroke:#ffffff;stroke-width:2.13021708;stroke-linecap:butt;stroke-linejoin:miter;stroke-miterlimit:4;stroke-dasharray:none;stroke-dashoffset:0;stroke-opacity:1" />
    <path
       style="fill:#ffffff;fill-opacity:1;fill-rule:nonzero;stroke:#ffffff;stroke-width:2.13021708;stroke-linecap:butt;stroke-linejoin:miter;stroke-miterlimit:4;stroke-dasharray:none;stroke-dashoffset:0;stroke-opacity:1"
       d="m 273.92352,453.41357 0.78854,9.08863 c 0.004,0 0.009,0 0.0128,0 l -0.80176,-9.08863 z m 52.29244,0 -0.78813,8.88838 c 0.004,0 0.009,0 0.0128,0 l 0.77491,-8.88838 z m 51.49196,9.07499 -2.25829,8.38049 m -153.02957,-8.38049 2.39205,8.95483 c 0,0 0.009,0 0.0128,0 l -2.40568,-8.95483 z m 204.42525,17.88368 -3.59467,7.69833 c 0,0 2.45851,-5.16659 3.59425,-7.69876 m -253.56393,0.0128 3.98234,8.58032 c 0.004,0 0.009,-0.0128 0.0128,-0.0128 l -3.99513,-8.56669 z m -45.28967,26.14316 5.53261,7.93907 c 0.009,-0.004 0.017,-0.009 0.0255,-0.0128 l -5.55945,-7.92587 z m -40.064639,33.61482 6.975847,6.98978 c 0.0043,0 -0.0043,-0.0128 0,-0.0128 l -6.975847,-6.97571 z m -33.609932,40.07114 8.151892,5.72049 c 0.0043,-0.004 0.0098,-0.009 0.01321,-0.0128 L 54.31668,580.2137 Z m 489.353191,1.4968 -4.47738,3.12783 c 0,0 0,0.009 0,0.0128 l 4.47738,-3.14103 z m -515.5058,43.79931 9.073611,4.25011 c 0.0043,-0.009 0.0085,-0.017 0.01277,-0.0255 l -9.087242,-4.22326 z m 541.03239,1.28292 -4.43904,2.05836 c 0,0 0,0.009 0,0.0128 l 4.43904,-2.07158 z m -558.913779,47.86321 9.742447,2.61909 c 0,0 0,-0.009 0,-0.0128 l -9.742447,-2.60588 z m 579.562539,0 -7.6043,2.03154 c 0,0.004 0,0.009 0,0.0128 l 7.59151,-2.04473 z M 1.2086851,726.1668 11.338803,727.06241 c 0,-0.009 0,-0.017 0,-0.0255 l -10.1301179,-0.8688 z m 597.6978349,0 -7.8301,0.68171 c 0,0.004 0,0.009 0,0.0128 l 7.8301,-0.69493 z M 11.338803,777.55792 1.2086851,778.45353 11.338803,777.58477 c 0,-0.009 0,-0.017 0,-0.0255 z m 579.737617,0.21389 c 0,0.004 0,0.009 0,0.0128 l 7.85566,0.68171 -7.85566,-0.69493 z m -571.051252,49.58968 -9.742447,2.6161 9.742447,-2.60332 0,0 z m 562.215792,0.57094 0,0.0426 7.57874,2.01534 -7.57874,-2.04517 z m -544.989607,46.95354 -9.074036,4.23946 9.087243,-4.23946 -0.01278,0 z m 527.493327,0.88625 0,0 7.19534,3.35321 -7.19534,-3.366 z m -502.262692,42.91433 -8.165269,5.72221 8.165269,-5.70942 0,0 z m 476.684982,1.09503 c 0,0 0,0 0,0.0426 l 6.62874,4.62717 -6.61595,-4.65274 z m -32.80711,38.87088 5.84061,5.83724 -5.82697,-5.83724 -0.0128,0 z m -411.185524,-3.2467 -6.780308,6.91948 z M 467.35087,991.2217 c -0.004,0 -0.009,0 -0.0128,0 l 4.79774,6.83 -4.78411,-6.84278 z m -290.07435,24.4354 -3.99556,8.594 4.00876,-8.5812 c -0.004,0 -0.009,0 -0.0128,0 z m 246.00095,0.8692 c -0.004,0 -0.009,0 -0.0128,0 l 3.5951,7.6864 -3.58148,-7.6991 z m -198.46536,16.6553 -2.39205,8.9519 2.40525,-8.9519 c -0.004,0 -0.009,0 -0.0128,0 z m 150.63624,0.5582 2.2583,8.3937 -2.24509,-8.3937 c -0.004,0 -0.009,0 -0.0128,0 z m -100.73629,8.3681 -0.78854,9.118 0.80176,-9.118 c -0.004,0 -0.009,0 -0.0128,0 z m 50.70257,0.2003 0.78813,8.9007 -0.76171,-8.9007 c -0.009,0 -0.017,0 -0.0255,0 z"
       id="path3114-3" />
    <path
       id="path3116-7"
       d="m 273.92352,453.41357 0.78854,9.08863 c 0.004,0 0.009,0 0.0128,0 l -0.80176,-9.08863 z m 52.29244,0 -0.78813,8.88838 c 0.004,0 0.009,0 0.0128,0 l 0.77491,-8.88838 z m 51.49196,9.07499 -2.25829,8.38049 m -153.02957,-8.38049 2.39205,8.95483 c 0,0 0.009,0 0.0128,0 l -2.40568,-8.95483 z m 204.42525,17.88368 -3.59467,7.69833 c 0,0 2.45851,-5.16659 3.59425,-7.69876 m -253.56393,0.0128 3.98234,8.58032 c 0.004,0 0.009,-0.0128 0.0128,-0.0128 l -3.99513,-8.56669 z m -45.28967,26.14316 5.53261,7.93907 c 0.009,-0.004 0.017,-0.009 0.0255,-0.0128 l -5.55945,-7.92587 z m -40.064639,33.61482 6.975847,6.98978 c 0.0043,0 -0.0043,-0.0128 0,-0.0128 l -6.975847,-6.97571 z m -33.609932,40.07114 8.151892,5.72049 c 0.0043,-0.004 0.0098,-0.009 0.01321,-0.0128 L 54.31668,580.2137 Z m 489.353191,1.4968 -4.47738,3.12783 c 0,0 0,0.009 0,0.0128 l 4.47738,-3.14103 z m -515.5058,43.79931 9.073611,4.25011 c 0.0043,-0.009 0.0085,-0.017 0.01277,-0.0255 l -9.087242,-4.22326 z m 541.03239,1.28292 -4.43904,2.05836 c 0,0 0,0.009 0,0.0128 l 4.43904,-2.07158 z m -558.913779,47.86321 9.742447,2.61909 c 0,0 0,-0.009 0,-0.0128 l -9.742447,-2.60588 z m 579.562539,0 -7.6043,2.03154 c 0,0.004 0,0.009 0,0.0128 l 7.59151,-2.04473 z M 1.2086851,726.1668 11.338803,727.06241 c 0,-0.009 0,-0.017 0,-0.0255 l -10.1301179,-0.8688 z m 597.6978349,0 -7.8301,0.68171 c 0,0.004 0,0.009 0,0.0128 l 7.8301,-0.69493 z M 11.338803,777.55792 1.2086851,778.45353 11.338803,777.58477 c 0,-0.009 0,-0.017 0,-0.0255 z m 579.737617,0.21389 c 0,0.004 0,0.009 0,0.0128 l 7.85566,0.68171 -7.85566,-0.69493 z m -571.051252,49.58968 -9.742447,2.6161 9.742447,-2.60332 0,0 z m 562.215792,0.57094 0,0.0426 7.57874,2.01534 -7.57874,-2.04517 z m -544.989607,46.95354 -9.074036,4.23946 9.087243,-4.23946 -0.01278,0 z m 527.493327,0.88625 0,0 7.19534,3.35321 -7.19534,-3.366 z m -502.262692,42.91433 -8.165269,5.72221 8.165269,-5.70942 0,0 z m 476.684982,1.09503 c 0,0 0,0 0,0.0426 l 6.62874,4.62717 -6.61595,-4.65274 z m -32.80711,38.87088 5.84061,5.83724 -5.82697,-5.83724 -0.0128,0 z m 5.90877,-415.37399 -6.78166,6.91948 z M 467.35087,991.2217 c -0.004,0 -0.009,0 -0.0128,0 l 4.79774,6.83 -4.78411,-6.84278 z m -290.07435,24.4354 -3.99556,8.594 4.00876,-8.5812 c -0.004,0 -0.009,0 -0.0128,0 z m 246.00095,0.8692 c -0.004,0 -0.009,0 -0.0128,0 l 3.5951,7.6864 -3.58148,-7.6991 z m -198.46536,16.6553 -2.39205,8.9519 2.40525,-8.9519 c -0.004,0 -0.009,0 -0.0128,0 z m 150.63624,0.5582 2.2583,8.3937 -2.24509,-8.3937 c -0.004,0 -0.009,0 -0.0128,0 z m -100.73629,8.3681 -0.78854,9.118 0.80176,-9.118 c -0.004,0 -0.009,0 -0.0128,0 z m 50.70257,0.2003 0.78813,8.9007 -0.76171,-8.9007 c -0.009,0 -0.017,0 -0.0255,0 z"
       style="fill:#ffffff;fill-opacity:1;fill-rule:nonzero;stroke:#ffffff;stroke-width:2.13021708;stroke-linecap:butt;stroke-linejoin:miter;stroke-miterlimit:4;stroke-dasharray:none;stroke-dashoffset:0;stroke-opacity:1" />
    <path
       style="fill:#ffffff;fill-opacity:1;fill-rule:nonzero;stroke:#ffffff;stroke-width:2.13021708;stroke-linecap:butt;stroke-linejoin:miter;stroke-miterlimit:4;stroke-dasharray:none;stroke-dashoffset:0;stroke-opacity:1"
       d="m 273.92352,453.41357 0.78854,9.08863 c 0.004,0 0.009,0 0.0128,0 l -0.80176,-9.08863 z m 52.29244,0 -0.78813,8.88838 c 0.004,0 0.009,0 0.0128,0 l 0.77491,-8.88838 z m 51.49196,9.07499 -2.25829,8.38049 m -153.02957,-8.38049 2.39205,8.95483 c 0,0 0.009,0 0.0128,0 l -2.40568,-8.95483 z m 204.42525,17.88368 -3.59467,7.69833 c 0,0 2.45851,-5.16659 3.59425,-7.69876 m -253.56393,0.0128 3.98234,8.58032 c 0.004,0 0.009,-0.0128 0.0128,-0.0128 l -3.99513,-8.56669 z m -45.28967,26.14316 5.53261,7.93907 c 0.009,-0.004 0.017,-0.009 0.0255,-0.0128 l -5.55945,-7.92587 z m -40.064639,33.61482 6.975847,6.98978 c 0.0043,0 -0.0043,-0.0128 0,-0.0128 l -6.975847,-6.97571 z m -33.609932,40.07114 8.151892,5.72049 c 0.0043,-0.004 0.0098,-0.009 0.01321,-0.0128 L 54.31668,580.2137 Z m 489.353191,1.4968 -4.47738,3.12783 c 0,0 0,0.009 0,0.0128 l 4.47738,-3.14103 z m -515.5058,43.79931 9.073611,4.25011 c 0.0043,-0.009 0.0085,-0.017 0.01277,-0.0255 l -9.087242,-4.22326 z m 541.03239,1.28292 -4.43904,2.05836 c 0,0 0,0.009 0,0.0128 l 4.43904,-2.07158 z m -558.913779,47.86321 9.742447,2.61909 c 0,0 0,-0.009 0,-0.0128 l -9.742447,-2.60588 z m 579.562539,0 -7.6043,2.03154 c 0,0.004 0,0.009 0,0.0128 l 7.59151,-2.04473 z M 1.2086851,726.1668 11.338803,727.06241 c 0,-0.009 0,-0.017 0,-0.0255 l -10.1301179,-0.8688 z m 597.6978349,0 -7.8301,0.68171 c 0,0.004 0,0.009 0,0.0128 l 7.8301,-0.69493 z M 11.338803,777.55792 1.2086851,778.45353 11.338803,777.58477 c 0,-0.009 0,-0.017 0,-0.0255 z m 579.737617,0.21389 c 0,0.004 0,0.009 0,0.0128 l 7.85566,0.68171 -7.85566,-0.69493 z m -571.051252,49.58968 -9.742447,2.6161 9.742447,-2.60332 0,0 z m 562.215792,0.57094 0,0.0426 7.57874,2.01534 -7.57874,-2.04517 z m -544.989607,46.95354 -9.074036,4.23946 9.087243,-4.23946 -0.01278,0 z m 527.493327,0.88625 0,0 7.19534,3.35321 -7.19534,-3.366 z m -502.262692,42.91433 -8.165269,5.72221 8.165269,-5.70942 0,0 z m 476.684982,1.09503 c 0,0 0,0 0,0.0426 l 6.62874,4.62717 -6.61595,-4.65274 z m -32.80711,38.87088 5.84061,5.83724 -5.82697,-5.83724 -0.0128,0 z m -34.44214,-450.541 -5.74391,7.80315 z m -4.56685,483.11023 c -0.004,0 -0.009,0 -0.0128,0 l 4.79774,6.83 -4.78411,-6.84278 z m -290.07435,24.43541 -3.99556,8.594 4.00876,-8.5812 c -0.004,0 -0.009,0 -0.0128,0 z m 246.00095,0.8692 c -0.004,0 -0.009,0 -0.0128,0 l 3.5951,7.6864 -3.58148,-7.6991 z m -198.46536,16.6553 -2.39205,8.9519 2.40525,-8.9519 c -0.004,0 -0.009,0 -0.0128,0 z m 150.63624,0.5582 2.2583,8.3937 -2.24509,-8.3937 c -0.004,0 -0.009,0 -0.0128,0 z m -100.73629,8.3681 -0.78854,9.118 0.80176,-9.118 c -0.004,0 -0.009,0 -0.0128,0 z m 50.70257,0.2003 0.78813,8.9007 -0.76171,-8.9007 c -0.009,0 -0.017,0 -0.0255,0 z"
       id="path3118-5" />
  </g>
  <path
     id="rect4138"
     d="m 0,-1e-5 0,673.22835 566.92913,0 0,-673.22835 z m 37.5,180.72836 c 122.17305,-178.4857435 379.25549,-167.944754 492.5,0 l -40,27.5 0,215 -412.5,0 0,-215 z"
     style="fill:#000000;fill-opacity:1;stroke:none;stroke-width:7.65867233;stroke-miterlimit:4;stroke-dasharray:none;stroke-opacity:1" />
  <path
     style="display:inline;fill:none;stroke:#ffffff;stroke-width:2;stroke-linecap:round;stroke-linejoin:round;stroke-miterlimit:4;stroke-opacity:1;stroke-dasharray:none"
     d="m 421.87807,302.59837 c -2.55277,-33.17443 -19.22289,-62.86165 -44.65515,-84.25526 -25.43225,-21.3936 -59.62663,-34.4936 -97.22793,-34.4936 -37.60164,0 -71.79349,13.1 -97.22314,34.4936 -25.42966,21.39361 -42.0971,51.08083 -44.64995,84.25526"
     id="path3171" />
  <path
     id="path4476"
     d="m 96.5,428.22835 0,145"
     style="fill:none;fill-rule:evenodd;stroke:#3282dc;stroke-width:3;stroke-linecap:butt;stroke-linejoin:miter;stroke-miterlimit:4;stroke-dasharray:none;stroke-opacity:1" />
  <path
     id="path4476-6"
     d="m 466.5,428.22835 0,145"
     style="fill:none;fill-rule:evenodd;stroke:#3282dc;stroke-width:3;stroke-linecap:butt;stroke-linejoin:miter;stroke-miterlimit:4;stroke-dasharray:none;stroke-opacity:1" />
  <path
     id="path4478-3-6"
     d="m 27,429.22835 513,0"
     style="fill:none;fill-rule:evenodd;stroke:#3282dc;stroke-width:3;stroke-linecap:butt;stroke-linejoin:miter;stroke-miterlimit:4;stroke-dasharray:none;stroke-opacity:1" />
  <path
     id="path5496"
     d="m 144.01786,498.1212 -25.625,0 -7.23215,-8.21428 -4.73214,0 2.32143,11.42857 5.53571,5.89286 41.42858,0 z"
     style="fill:none;fill-rule:evenodd;stroke:#ffffff;stroke-width:2;stroke-linecap:butt;stroke-linejoin:miter;stroke-miterlimit:4;stroke-dasharray:none;stroke-opacity:1" />
  <text
     sodipodi:linespacing="125%"
     xml:space="preserve"
     style="font-style:normal;font-variant:normal;font-weight:normal;font-stretch:normal;font-size:36px;line-height:125%;font-family:'Liberation Sans';-inkscape-font-specification:'Liberation Sans';text-align:start;letter-spacing:0px;word-spacing:0px;writing-mode:lr-tb;text-anchor:start;display:inline;fill:#ffffff;fill-opacity:1;stroke:none"
     x="260.82812"
     y="27.984213"
     id="hdg"><tspan
       id="tspan3013"
       x="260.82812"
       y="27.984213"
       style="font-size:25px;fill:#ffffff;fill-opacity:1">999</tspan></text>
  <path
     inkscape:connector-curvature="0"
     id="path5508"
     d="m 283.5,33.22835 0,20"
     style="fill:none;fill-rule:evenodd;stroke:#ffffff;stroke-width:2;stroke-linecap:butt;stroke-linejoin:miter;stroke-miterlimit:4;stroke-dasharray:none;stroke-opacity:1" />
  <path
     id="altitude_set"
     d="m 284.0595,46.70497 -12.86027,-13.06307 -7.89363,0 0,19.72973 40,0 0,-20 -7.18399,0 z"
     style="opacity:1;fill:#00ffff;fill-opacity:1;stroke:none;stroke-width:3;stroke-linecap:square;stroke-linejoin:miter;stroke-miterlimit:4;stroke-dasharray:none;stroke-opacity:1" />
  <g
     transform="matrix(0.44813601,0,0,0.44813601,264.50537,290.55882)"
     id="airplane">
    <path
       style="fill:none;stroke:#ffffff;stroke-width:4.46293068;stroke-linecap:butt;stroke-linejoin:miter;stroke-miterlimit:4;stroke-dasharray:none;stroke-opacity:1"
       d="M 29.126,102.65 29.2323,93.5433 35.3622,85.2874 34.6535,58.0039 2.12598,76.3228 1.98425,65.9764 35.185,35.5394 35.3976,15.0945 42.378,2.01969 50.563,15.5197 50.315,35.4685 85.8543,65.6575 85.748,75.0118 52.3701,56.9409 52.0157,86.2441 58.748,93.6496 58.6417,103.5 44.0787,95.4921 Z"
       id="path3783" />
  </g>
  <rect
     y="7.2284751"
     x="251.00012"
     height="24.999741"
     width="62.999741"
     id="rect4224"
     style="fill:none;fill-opacity:1;stroke:#ffffff;stroke-width:2;stroke-miterlimit:4;stroke-dasharray:none;stroke-opacity:1" />
</svg>
