<?xml version="1.0" encoding="UTF-8" standalone="no"?>
<!-- Created with Inkscape (http://www.inkscape.org/) -->

<svg
   xmlns:dc="http://purl.org/dc/elements/1.1/"
   xmlns:cc="http://creativecommons.org/ns#"
   xmlns:rdf="http://www.w3.org/1999/02/22-rdf-syntax-ns#"
   xmlns:svg="http://www.w3.org/2000/svg"
   xmlns="http://www.w3.org/2000/svg"
   xmlns:sodipodi="http://sodipodi.sourceforge.net/DTD/sodipodi-0.dtd"
   xmlns:inkscape="http://www.inkscape.org/namespaces/inkscape"
   width="800"
   height="950"
   viewBox="0 0 800.00001 950.00002"
   id="svg2"
   version="1.1"
   inkscape:version="0.91 r13725"
   sodipodi:docname="iceJet.svg">
  <metadata
     id="metadata61">
    <rdf:RDF>
      <cc:Work
         rdf:about="">
        <dc:format>image/svg+xml</dc:format>
        <dc:type
           rdf:resource="http://purl.org/dc/dcmitype/StillImage" />
      </cc:Work>
    </rdf:RDF>
  </metadata>
  <defs
     id="defs64" />
  <sodipodi:namedview
     id="base"
     pagecolor="#585858"
     bordercolor="#666666"
     borderopacity="1.0"
     inkscape:pageopacity="1"
     inkscape:pageshadow="2"
     inkscape:zoom="0.45254834"
     inkscape:cx="249.81687"
     inkscape:cy="630.38924"
     inkscape:document-units="px"
     inkscape:current-layer="svg2"
     showgrid="false"
     inkscape:window-width="1366"
     inkscape:window-height="711"
     inkscape:window-x="0"
     inkscape:window-y="0"
     inkscape:window-maximized="1"
     units="px"
     showguides="true"
     inkscape:guide-bbox="true" />
  <path
     d="m 0,-1e-5 800,0 0,949.99995 -800,0 L 0,-1e-5 Z"
     style="fill:#000000;fill-opacity:1;fill-rule:nonzero;stroke:none"
     id="path4644"
     inkscape:connector-curvature="0"
     sodipodi:insensitive="true" />
  <path
     inkscape:connector-curvature="0"
     id="path6019"
     style="fill:none;stroke:#ffffff;stroke-width:3;stroke-linecap:butt;stroke-linejoin:miter;stroke-miterlimit:4;stroke-dasharray:none;stroke-opacity:1"
     d="m 396.60888,111.62044 0,43.30979 -34.4502,16.98434 -10.88116,52.65678 -33.94973,-9.34994 23.97821,-77.27553 55.30288,-26.32544 z m -55.30288,26.32544 20.85268,33.96869" />
  <path
     inkscape:connector-curvature="0"
     id="path6041"
     style="fill:none;stroke:#ffffff;stroke-width:3;stroke-linecap:butt;stroke-linejoin:miter;stroke-miterlimit:4;stroke-dasharray:none;stroke-opacity:1"
     d="m 396.60888,111.62044 0,43.30979 34.46279,16.98434 10.88116,52.65678 33.94659,-9.34994 -23.97507,-77.27553 -55.31547,-26.32544 z m 55.31547,26.32544 -20.85268,33.96869" />
  <path
     sodipodi:nodetypes="cc"
     inkscape:connector-curvature="0"
     id="path6003"
     style="fill:none;stroke:#00ff00;stroke-width:3;stroke-linecap:butt;stroke-linejoin:miter;stroke-miterlimit:4;stroke-dasharray:none;stroke-opacity:1"
     d="m 70,605 657.5,0" />
  <path
     d="m 97.356505,604.20935 -18.259077,-8.92322 0,17.83759 18.259077,-8.91437"
     style="fill:#00ff00;fill-opacity:1;fill-rule:nonzero;stroke:none"
     id="path6009"
     inkscape:connector-curvature="0" />
  <path
     d="m 373.89921,604.20935 -18.25908,-8.92322 0,17.83759 18.25908,-8.91437"
     style="fill:#00ff00;fill-opacity:1;fill-rule:nonzero;stroke:none"
     id="path6015"
     inkscape:connector-curvature="0" />
  <path
     d="m 697.96399,604.20935 18.25907,-8.92322 0,17.83759 -18.25907,-8.91437"
     style="fill:#00ff00;fill-opacity:1;fill-rule:nonzero;stroke:none"
     id="path6035"
     inkscape:connector-curvature="0" />
  <path
     d="m 429.04471,604.20935 18.25592,-8.92322 0,17.83759 -18.25592,-8.91437"
     style="fill:#00ff00;fill-opacity:1;fill-rule:nonzero;stroke:none"
     id="path6037"
     inkscape:connector-curvature="0" />
  <path
     inkscape:connector-curvature="0"
     id="path6199"
     style="fill:none;stroke:#00ff00;stroke-width:2.99988222;stroke-linecap:butt;stroke-linejoin:miter;stroke-miterlimit:4;stroke-dasharray:none;stroke-opacity:1"
     d="m 167.49407,631.00006 c 14.35346,0 26.00599,-11.64594 26.00599,-26.00747 0,-14.34969 -11.65253,-25.99265 -26.00599,-25.99265 -14.35347,0 -25.99413,11.64296 -25.99413,25.99265 0,14.36153 11.64066,26.00747 25.99413,26.00747 z" />
  <path
     d="m 632.49407,631.00006 c 14.35346,0 26.00599,-11.64594 26.00599,-26.00747 0,-14.34969 -11.65253,-25.99265 -26.00599,-25.99265 -14.35347,0 -25.99413,11.64296 -25.99413,25.99265 0,14.36153 11.64066,26.00747 25.99413,26.00747 z"
     style="fill:none;stroke:#00ff00;stroke-width:2.99988222;stroke-linecap:butt;stroke-linejoin:miter;stroke-miterlimit:4;stroke-dasharray:none;stroke-opacity:1"
     id="path4262"
     inkscape:connector-curvature="0" />
  <g
     id="g4199">
    <path
       sodipodi:nodetypes="cc"
       d="m 80.000014,506.90588 577.499976,0"
       style="fill:none;stroke:#00ff00;stroke-width:3;stroke-linecap:butt;stroke-linejoin:miter;stroke-miterlimit:4;stroke-dasharray:none;stroke-opacity:1"
       id="path6023"
       inkscape:connector-curvature="0" />
    <path
       d="m 466.3422,492.64063 c -4.26258,0 -7.70157,3.21345 -7.70157,7.18042 l 0,14.36084 c 0,3.95524 3.43899,7.17748 7.70157,7.17748 l 48.31874,0 c 4.24686,0 7.69842,-3.22224 7.69842,-7.17748 l 0,-14.36084 c 0,-3.96697 -3.45156,-7.18042 -7.69842,-7.18042 z"
       style="fill:#000000;fill-opacity:1;stroke:#00ff00;stroke-width:3;stroke-linecap:butt;stroke-linejoin:miter;stroke-miterlimit:4;stroke-dasharray:none;stroke-opacity:1"
       id="path6029"
       inkscape:connector-curvature="0"
       sodipodi:nodetypes="sssssssss" />
    <path
       inkscape:connector-curvature="0"
       id="path9471"
       style="fill:#000000;stroke:#00ff00;stroke-width:3;stroke-linecap:butt;stroke-linejoin:miter;stroke-miterlimit:4;stroke-dasharray:none;stroke-opacity:1;fill-opacity:1"
       d="m 666.33746,492.64053 c -4.24605,0 -7.69694,3.21347 -7.69694,7.18046 l 0,14.36096 c 0,3.95527 3.45089,7.17753 7.69694,7.17753 l 48.30937,0 c 4.26175,0 7.71264,-3.22226 7.71264,-7.17753 l 0,-14.36096 c 0,-3.96699 -3.45089,-7.18046 -7.71264,-7.18046 z"
       sodipodi:nodetypes="sssssssss" />
    <path
       inkscape:connector-curvature="0"
       id="path9465"
       style="fill:#000000;fill-opacity:1;stroke:#00ff00;stroke-width:3;stroke-linecap:butt;stroke-linejoin:miter;stroke-miterlimit:4;stroke-dasharray:none;stroke-opacity:1"
       d="m 568.85283,492.48337 c -4.25238,0 -7.70841,3.23062 -7.70841,7.21879 l 0,14.43758 c 0,3.97638 3.45603,7.21584 7.70841,7.21584 l 48.38136,0 c 4.26811,0 7.72414,-3.23946 7.72414,-7.21584 l 0,-14.43758 c 0,-3.98817 -3.45603,-7.21879 -7.72414,-7.21879 z"
       sodipodi:nodetypes="sssssssss" />
    <path
       inkscape:connector-curvature="0"
       id="path9476"
       style="fill:#000000;fill-opacity:1;stroke:#00ff00;stroke-width:3;stroke-linecap:butt;stroke-linejoin:miter;stroke-miterlimit:4;stroke-dasharray:none;stroke-opacity:1"
       d="m 128.45006,492.62558 c 4.25021,0 7.69881,3.21345 7.69881,7.18041 l 0,14.36081 c 0,3.95523 -3.4486,7.17747 -7.69881,7.17747 l -48.321076,0 c -4.262792,0 -7.698804,-3.22224 -7.698804,-7.17747 l 0,-14.36081 c 0,-3.96696 3.436012,-7.18041 7.698804,-7.18041 z"
       sodipodi:nodetypes="sssssssss" />
    <path
       sodipodi:nodetypes="sssssssss"
       d="m 227.16054,492.64065 c 4.25021,0 7.69881,3.21345 7.69881,7.18041 l 0,14.36081 c 0,3.95523 -3.4486,7.17747 -7.69881,7.17747 l -48.32107,0 c -4.2628,0 -7.69881,-3.22224 -7.69881,-7.17747 l 0,-14.36081 c 0,-3.96696 3.43601,-7.18041 7.69881,-7.18041 z"
       style="fill:#000000;fill-opacity:1;stroke:#00ff00;stroke-width:3;stroke-linecap:butt;stroke-linejoin:miter;stroke-miterlimit:4;stroke-dasharray:none;stroke-opacity:1"
       id="path4849"
       inkscape:connector-curvature="0" />
    <path
       inkscape:connector-curvature="0"
       id="path9473"
       style="fill:#000000;fill-opacity:1;stroke:#00ff00;stroke-width:3;stroke-linecap:butt;stroke-linejoin:miter;stroke-miterlimit:4;stroke-dasharray:none;stroke-opacity:1"
       d="m 327.44724,492.48337 c 4.26811,0 7.7084,3.23062 7.7084,7.21879 l 0,14.43758 c 0,3.97638 -3.44029,7.21584 -7.7084,7.21584 l -48.38136,0 c -4.25238,0 -7.70841,-3.23946 -7.70841,-7.21584 l 0,-14.43758 c 0,-3.98817 3.45603,-7.21879 7.70841,-7.21879 z"
       sodipodi:nodetypes="sssssssss" />
  </g>
  <g
     id="g4189">
    <path
       d="m 275,737.04052 250,0"
       style="fill:none;stroke:#00ff00;stroke-width:3;stroke-linecap:butt;stroke-linejoin:miter;stroke-miterlimit:4;stroke-dasharray:none;stroke-opacity:1"
       id="path5997"
       inkscape:connector-curvature="0"
       sodipodi:nodetypes="cc" />
    <path
       sodipodi:nodetypes="cc"
       d="m 403.18731,725 0,-217.46038"
       style="fill:none;stroke:#00ff00;stroke-width:3;stroke-linecap:butt;stroke-linejoin:miter;stroke-miterlimit:4;stroke-dasharray:none;stroke-opacity:1"
       id="path6073"
       inkscape:connector-curvature="0" />
    <path
       d="m 300.48512,722.60589 c 4.26496,0 7.70841,3.23946 7.70841,7.21584 l 0,14.43758 c 0,3.98817 -3.44345,7.21584 -7.70841,7.21584 l -41.70536,0 c -4.25552,0 -7.70841,-3.22767 -7.70841,-7.21584 l 0,-14.43758 c 0,-3.97638 3.45289,-7.21584 7.70841,-7.21584 l 41.70536,0 z"
       style="fill:#000000;fill-opacity:1;fill-rule:nonzero;stroke:#00ff00;stroke-width:3;stroke-linecap:butt;stroke-linejoin:miter;stroke-miterlimit:4;stroke-dasharray:none;stroke-opacity:1"
       id="path5977"
       inkscape:connector-curvature="0" />
    <path
       sodipodi:nodetypes="sssssssss"
       d="m 368.04779,722.60589 c 4.25238,0 7.70841,3.23946 7.70841,7.21584 l 0,14.43758 c 0,3.98817 -3.45603,7.21584 -7.70841,7.21584 l -41.70535,0 c -4.25552,0 -7.71156,-3.22767 -7.71156,-7.21584 l 0,-14.43758 c 0,-3.97638 3.45604,-7.21584 7.71156,-7.21584 z"
       style="fill:#000000;fill-opacity:1;stroke:#00ff00;stroke-width:3;stroke-linecap:butt;stroke-linejoin:miter;stroke-miterlimit:4;stroke-dasharray:none;stroke-opacity:1"
       id="path5981"
       inkscape:connector-curvature="0" />
    <path
       d="m 418.60413,705.71292 c 0,-3.99111 -3.45289,-7.21879 -7.70841,-7.21879 l -15.41682,0 c -4.25552,0 -7.71156,3.22768 -7.71156,7.21879 l 0,39.05338 c 0,3.98817 3.45604,7.23058 7.71156,7.23058 l 15.41682,0 c 4.25552,0 7.70841,-3.24241 7.70841,-7.23058 l 0,-39.05338 z"
       style="fill:#000000;fill-opacity:1;fill-rule:nonzero;stroke:#00ff00;stroke-width:3;stroke-linecap:butt;stroke-linejoin:miter;stroke-miterlimit:4;stroke-dasharray:none;stroke-opacity:1"
       id="path5985"
       inkscape:connector-curvature="0" />
    <path
       d="m 438.33942,722.60589 c -4.26811,0 -7.721,3.23946 -7.721,7.21584 l 0,14.43758 c 0,3.98817 3.45289,7.21584 7.721,7.21584 l 41.69276,0 c 4.26496,0 7.721,-3.22767 7.721,-7.21584 l 0,-14.43758 c 0,-3.97638 -3.45604,-7.21584 -7.721,-7.21584 l -41.69276,0 z"
       style="fill:#000000;fill-opacity:1;fill-rule:nonzero;stroke:#00ff00;stroke-width:3;stroke-linecap:butt;stroke-linejoin:miter;stroke-miterlimit:4;stroke-dasharray:none;stroke-opacity:1"
       id="path5993"
       inkscape:connector-curvature="0" />
    <path
       d="m 505.8895,722.60589 c -4.25552,0 -7.71156,3.23946 -7.71156,7.21584 l 0,14.43758 c 0,3.98817 3.45604,7.21584 7.71156,7.21584 l 41.70536,0 c 4.26496,0 7.70841,-3.22767 7.70841,-7.21584 l 0,-14.43758 c 0,-3.97638 -3.44345,-7.21584 -7.70841,-7.21584 l -41.70536,0 z"
       style="fill:#000000;fill-opacity:1;stroke:#00ff00;stroke-width:3;stroke-linecap:butt;stroke-linejoin:miter;stroke-miterlimit:4;stroke-dasharray:none;stroke-opacity:1"
       id="path5989"
       inkscape:connector-curvature="0" />
    <path
       sodipodi:nodetypes="sssssssss"
       inkscape:connector-curvature="0"
       id="path4830"
       style="fill:#000000;fill-opacity:1;stroke:#00ff00;stroke-width:3;stroke-linecap:butt;stroke-linejoin:miter;stroke-miterlimit:4;stroke-dasharray:none;stroke-opacity:1"
       d="m 418.60413,642.44461 c 0,-3.98817 -3.45289,-7.21879 -7.70841,-7.21879 l -15.41682,0 c -4.25552,0 -7.71156,3.23062 -7.71156,7.21879 l 0,39.05339 c 0,3.99111 3.45604,7.23057 7.71156,7.23057 l 15.41682,0 c 4.25552,0 7.70841,-3.23946 7.70841,-7.23057 z" />
  </g>
  <g
     id="g4252"
     transform="translate(405.01448,-0.24436959)">
    <path
       inkscape:connector-curvature="0"
       id="path4845"
       style="fill:#000000;fill-opacity:1;fill-rule:nonzero;stroke:#ffffff;stroke-width:2.99991918;stroke-linecap:butt;stroke-linejoin:miter;stroke-miterlimit:4;stroke-dasharray:none;stroke-opacity:1"
       d="m 227.47959,631.24441 c 14.36532,0 26.00597,-11.64592 26.00597,-26.00744 0,-14.34969 -11.64065,-25.99264 -26.00597,-25.99264 -14.35345,0 -25.99411,11.64295 -25.99411,25.99264 0,14.36152 11.64066,26.00744 25.99411,26.00744 z" />
    <path
       inkscape:connector-curvature="0"
       id="path4847"
       style="fill:none;stroke:#ffffff;stroke-width:3;stroke-linecap:butt;stroke-linejoin:miter;stroke-miterlimit:4;stroke-dasharray:none;stroke-opacity:1"
       d="m 227.72835,578.38549 0,52.8444" />
  </g>
  <g
     transform="translate(-59.98552,-0.24436959)"
     id="g4264">
    <path
       d="m 227.47959,631.24441 c 14.36532,0 26.00597,-11.64592 26.00597,-26.00744 0,-14.34969 -11.64065,-25.99264 -26.00597,-25.99264 -14.35345,0 -25.99411,11.64295 -25.99411,25.99264 0,14.36152 11.64066,26.00744 25.99411,26.00744 z"
       style="fill:#000000;fill-opacity:1;fill-rule:nonzero;stroke:#ffffff;stroke-width:2.99991918;stroke-linecap:butt;stroke-linejoin:miter;stroke-miterlimit:4;stroke-dasharray:none;stroke-opacity:1"
       id="path4266"
       inkscape:connector-curvature="0" />
    <path
       d="m 227.72835,578.38549 0,52.8444"
       style="fill:none;stroke:#ffffff;stroke-width:3;stroke-linecap:butt;stroke-linejoin:miter;stroke-miterlimit:4;stroke-dasharray:none;stroke-opacity:1"
       id="path4268"
       inkscape:connector-curvature="0" />
  </g>
  <text
     id="text4269"
     y="235.99925"
     x="419.0007"
     style="font-style:normal;font-weight:normal;font-size:37.5px;line-height:125%;font-family:'Liberation Sans';text-align:start;letter-spacing:0px;word-spacing:0px;text-anchor:start;fill:#000000;fill-opacity:1;stroke:none;stroke-width:1px;stroke-linecap:butt;stroke-linejoin:miter;stroke-opacity:1"
     xml:space="default"
     sodipodi:linespacing="125%">
    <tspan
       style="font-size:22.50000191px;text-align:center;text-anchor:middle;fill:#ffffff"
       y="235.99925"
       x="397.35208"
       id="tspan4271">WSHLD</tspan>
  </text>
  <text
     sodipodi:linespacing="125%"
     xml:space="default"
     style="font-style:normal;font-weight:normal;font-size:37.5px;line-height:125%;font-family:'Liberation Sans';text-align:start;letter-spacing:0px;word-spacing:0px;text-anchor:start;fill:#000000;fill-opacity:1;stroke:none;stroke-width:1px;stroke-linecap:butt;stroke-linejoin:miter;stroke-opacity:1"
     x="127.31916"
     y="562.4837"
     id="text4211">
    <tspan
       id="tspan4213"
       x="105.67054"
       y="562.4837"
       style="font-size:22.50000191px;text-align:center;text-anchor:middle;fill:#ffffff">BLEED</tspan>
  </text>
  <text
     id="text4215"
     y="562.53448"
     x="711.18311"
     style="font-style:normal;font-weight:normal;font-size:37.5px;line-height:125%;font-family:'Liberation Sans';text-align:start;letter-spacing:0px;word-spacing:0px;text-anchor:start;fill:#000000;fill-opacity:1;stroke:none;stroke-width:1px;stroke-linecap:butt;stroke-linejoin:miter;stroke-opacity:1"
     xml:space="default"
     sodipodi:linespacing="125%">
    <tspan
       style="font-size:22.50000191px;text-align:center;text-anchor:middle;fill:#ffffff"
       y="562.53448"
       x="689.53448"
       id="tspan4217">BLEED</tspan>
  </text>
  <text
     sodipodi:linespacing="125%"
     xml:space="default"
     style="font-style:normal;font-weight:normal;font-size:37.5px;line-height:125%;font-family:'Liberation Sans';text-align:start;letter-spacing:0px;word-spacing:0px;text-anchor:start;fill:#000000;fill-opacity:1;stroke:none;stroke-width:1px;stroke-linecap:butt;stroke-linejoin:miter;stroke-opacity:1"
     x="101.00756"
     y="85.523964"
     id="text4203">
    <tspan
       id="tspan4205"
       x="79.35894"
       y="85.523964"
       style="font-size:22.50000191px;text-align:center;text-anchor:middle;fill:#ffffff">LH</tspan>
  </text>
  <text
     id="text4207"
     y="85.002663"
     x="721.81091"
     style="font-style:normal;font-weight:normal;font-size:37.5px;line-height:125%;font-family:'Liberation Sans';text-align:start;letter-spacing:0px;word-spacing:0px;text-anchor:start;fill:#000000;fill-opacity:1;stroke:none;stroke-width:1px;stroke-linecap:butt;stroke-linejoin:miter;stroke-opacity:1"
     xml:space="default"
     sodipodi:linespacing="125%">
    <tspan
       style="font-size:22.50000191px;text-align:center;text-anchor:middle;fill:#ffffff"
       y="85.002663"
       x="700.16229"
       id="tspan4209">RH</tspan>
  </text>
  <text
     sodipodi:linespacing="125%"
     xml:space="default"
     style="font-style:normal;font-weight:normal;font-size:37.5px;line-height:125%;font-family:'Liberation Sans';text-align:start;letter-spacing:0px;word-spacing:0px;text-anchor:start;fill:#000000;fill-opacity:1;stroke:none;stroke-width:1px;stroke-linecap:butt;stroke-linejoin:miter;stroke-opacity:1"
     x="419.39133"
     y="444.20242"
     id="text4199">
    <tspan
       id="tspan4201"
       x="397.74271"
       y="444.20242"
       style="font-size:22.50000191px;text-align:center;text-anchor:middle;fill:#ffffff">AIRFOIL DE–ICER</tspan>
  </text>
  <text
     sodipodi:linespacing="125%"
     xml:space="default"
     style="font-style:normal;font-weight:normal;font-size:37.5px;line-height:125%;font-family:'Liberation Sans';text-align:start;letter-spacing:0px;word-spacing:0px;text-anchor:start;fill:#000000;fill-opacity:1;stroke:none;stroke-width:1px;stroke-linecap:butt;stroke-linejoin:miter;stroke-opacity:1"
     x="421.34445"
     y="368.81177"
     id="text4195">
    <tspan
       id="tspan4197"
       x="399.69583"
       y="368.81177"
       style="font-size:22.50000191px;text-align:center;text-anchor:middle;fill:#ffffff">ENGINE ANTI- ICE</tspan>
  </text>
  <g
     id="g4234">
    <path
       inkscape:connector-curvature="0"
       id="path4235"
       style="fill:#000000;fill-opacity:1;fill-rule:nonzero;stroke:#55bbee;stroke-width:3;stroke-linecap:butt;stroke-linejoin:miter;stroke-miterlimit:4;stroke-dasharray:none;stroke-opacity:1"
       d="m 506.25,348.56757 0,25.18243 67.5,0 0,-25.18243 z"
       sodipodi:nodetypes="ccccc" />
    <text
       id="text4237"
       y="369.1911"
       x="547.14789"
       style="font-style:normal;font-weight:normal;font-size:37.5px;line-height:125%;font-family:'Liberation Sans';text-align:start;letter-spacing:0px;word-spacing:0px;text-anchor:start;fill:#ff0000;fill-opacity:1;stroke:none;stroke-width:1px;stroke-linecap:butt;stroke-linejoin:miter;stroke-opacity:1"
       sodipodi:linespacing="125%"
       xml:space="default">
      <tspan
         style="font-size:22.50000191px;text-align:center;text-anchor:middle;fill:#55bbee;fill-opacity:1"
         y="369"
         x="540"
         id="tspan4239">OFF</tspan>
    </text>
  </g>
  <g
     id="g4239">
    <path
       sodipodi:nodetypes="ccccc"
       d="m 226.25,348.56757 0,25.18243 67.5,0 0,-25.18243 z"
       style="fill:#000000;fill-opacity:1;fill-rule:nonzero;stroke:#55bbee;stroke-width:3;stroke-linecap:butt;stroke-linejoin:miter;stroke-miterlimit:4;stroke-dasharray:none;stroke-opacity:1"
       id="path4194"
       inkscape:connector-curvature="0" />
    <text
       xml:space="default"
       sodipodi:linespacing="125%"
       style="font-style:normal;font-weight:normal;font-size:37.5px;line-height:125%;font-family:'Liberation Sans';text-align:start;letter-spacing:0px;word-spacing:0px;text-anchor:start;fill:#ff0000;fill-opacity:1;stroke:none;stroke-width:1px;stroke-linecap:butt;stroke-linejoin:miter;stroke-opacity:1"
       x="267.14789"
       y="369.1911"
       id="text4196">
      <tspan
         id="tspan4198"
         x="260"
         y="369"
         style="font-size:22.50000191px;text-align:center;text-anchor:middle;fill:#55bbee;fill-opacity:1">OFF</tspan>
    </text>
  </g>
  <g
     id="warnings">
    <path
       d="m 291.33827,77.42183 0,28.37701 214.03503,0 0,-28.37701 -214.03503,0 z"
       style="fill:none;stroke:#ffbf00;stroke-width:3;stroke-linecap:butt;stroke-linejoin:miter;stroke-miterlimit:4;stroke-dasharray:none;stroke-opacity:1"
       id="path6077"
       inkscape:connector-curvature="0" />
    <text
       id="text6115-3"
       y="100.11846"
       x="405.0416"
       style="font-style:normal;font-weight:normal;font-size:37.5px;line-height:125%;font-family:'Liberation Sans';text-align:start;letter-spacing:0px;word-spacing:0px;text-anchor:start;fill:#ffbf00;fill-opacity:1;stroke:none;stroke-width:1px;stroke-linecap:butt;stroke-linejoin:miter;stroke-opacity:1"
       sodipodi:linespacing="125%"
       xml:space="default">
      <tspan
         style="font-size:22.50000191px;text-align:center;text-anchor:middle;fill:#ffbf00;fill-opacity:1"
         y="99.927376"
         x="397.89368"
         id="tspan6117-6">ICE DETECTED</tspan>
    </text>
  </g>
</svg>
