<?xml version="1.0" encoding="UTF-8" standalone="no"?>
<svg
   xmlns:dc="http://purl.org/dc/elements/1.1/"
   xmlns:cc="http://creativecommons.org/ns#"
   xmlns:rdf="http://www.w3.org/1999/02/22-rdf-syntax-ns#"
   xmlns:svg="http://www.w3.org/2000/svg"
   xmlns="http://www.w3.org/2000/svg"
   xmlns:sodipodi="http://sodipodi.sourceforge.net/DTD/sodipodi-0.dtd"
   xmlns:inkscape="http://www.inkscape.org/namespaces/inkscape"
   width="800"
   height="950"
   viewBox="0 0 799.99999 950.00001"
   id="svg4208"
   version="1.1"
   inkscape:version="0.91 r13725"
   sodipodi:docname="nd.svg">
  <sodipodi:namedview
     pagecolor="#585858"
     bordercolor="#666666"
     borderopacity="1"
     objecttolerance="10"
     gridtolerance="10"
     guidetolerance="10"
     inkscape:pageopacity="1"
     inkscape:pageshadow="2"
     inkscape:window-width="1366"
     inkscape:window-height="711"
     id="namedview50"
     showgrid="false"
     inkscape:zoom="0.70710678"
     inkscape:cx="428.03104"
     inkscape:cy="651.30379"
     inkscape:window-x="0"
     inkscape:window-y="0"
     inkscape:window-maximized="1"
     inkscape:current-layer="svg4208"
     units="px"
     showguides="true"
     inkscape:guide-bbox="true">
    <sodipodi:guide
       position="266,460.00001"
       orientation="0,1"
       id="guide4251" />
  </sodipodi:namedview>
  <defs
     id="defs4210">
    <inkscape:path-effect
       border_marks="both"
       mark_dir="right"
       offset="0"
       shift="0"
       major_mark_steps="2"
       minor_mark_length="15"
       mark_length="30"
       mark_distance="40.9"
       unit="px"
       is_visible="true"
       id="path-effect4901"
       effect="ruler" />
  </defs>
  <metadata
     id="metadata4213">
    <rdf:RDF>
      <cc:Work
         rdf:about="">
        <dc:format>image/svg+xml</dc:format>
        <dc:type
           rdf:resource="http://purl.org/dc/dcmitype/StillImage" />
        <dc:title />
      </cc:Work>
    </rdf:RDF>
  </metadata>
  <g
     id="compass"
     transform="matrix(1.2499993,0,0,1.249811,25.000354,-450.2534)">
    <path
       style="fill:none;stroke:#ffffff;stroke-width:2.13021708;stroke-linecap:butt;stroke-linejoin:miter;stroke-miterlimit:4;stroke-dasharray:none;stroke-dashoffset:0;stroke-opacity:1"
       d="m 300,453.33612 c 165.09727,0 298.93506,133.85809 298.93506,298.98041 C 598.93504,917.43884 465.09726,1051.2969 300,1051.2969 134.90274,1051.2969 1.0649635,917.43883 1.0649414,752.31653 1.0649414,587.19421 134.90273,453.33612 300,453.33612"
       id="path3845-3"
       inkscape:connector-curvature="0" />
    <text
       id="text3055-6"
       y="486.57465"
       x="293.56891"
       style="font-style:normal;font-variant:normal;font-weight:normal;font-stretch:normal;font-size:15.33756256px;line-height:125%;font-family:'Liberation Sans';-inkscape-font-specification:'Liberation Sans';text-align:start;letter-spacing:0px;word-spacing:0px;writing-mode:lr-tb;text-anchor:start;fill:#ffffff;fill-opacity:1;stroke:#ffffff;stroke-opacity:1"
       xml:space="preserve"
       transform="scale(0.99992416,1.0000758)"
       sodipodi:linespacing="125%"><tspan
         style="font-size:17.0417366px;stroke:#ffffff;stroke-opacity:1"
         y="486.57465"
         x="293.56891"
         id="tspan3057-7">N</tspan></text>
    <text
       transform="matrix(0.8659596,-0.50003809,0.49996226,0.86609101,0,0)"
       xml:space="preserve"
       style="font-style:normal;font-variant:normal;font-weight:normal;font-stretch:normal;font-size:15.33753395px;line-height:125%;font-family:'Liberation Sans';-inkscape-font-specification:'Liberation Sans';text-align:start;letter-spacing:0px;word-spacing:0px;writing-mode:lr-tb;text-anchor:start;fill:#ffffff;fill-opacity:1;stroke:#ffffff;stroke-opacity:1"
       x="-125.80399"
       y="535.28497"
       id="text3080-5"
       sodipodi:linespacing="125%"><tspan
         id="tspan3082-3"
         x="-125.80399"
         y="535.28497"
         style="font-size:17.04169846px;stroke:#ffffff;stroke-opacity:1">33</tspan></text>
    <text
       id="text3084-5"
       y="370.08212"
       x="-510.57104"
       style="font-style:normal;font-variant:normal;font-weight:normal;font-stretch:normal;font-size:15.33757496px;line-height:125%;font-family:'Liberation Sans';-inkscape-font-specification:'Liberation Sans';text-align:start;letter-spacing:0px;word-spacing:0px;writing-mode:lr-tb;text-anchor:start;fill:#ffffff;fill-opacity:1;stroke:#ffffff;stroke-opacity:1"
       xml:space="preserve"
       transform="matrix(0.49996183,-0.86609126,0.86595985,0.50003766,0,0)"
       sodipodi:linespacing="125%"><tspan
         style="font-size:17.04174423px;stroke:#ffffff;stroke-opacity:1"
         y="370.08212"
         x="-510.57104"
         id="tspan3086-6">30</tspan></text>
    <text
       transform="matrix(0,-1.0000758,0.99992416,0,0,0)"
       xml:space="preserve"
       style="font-style:normal;font-variant:normal;font-weight:normal;font-stretch:normal;font-size:15.33756828px;line-height:125%;font-family:'Liberation Sans';-inkscape-font-specification:'Liberation Sans';text-align:start;letter-spacing:0px;word-spacing:0px;writing-mode:lr-tb;text-anchor:start;fill:#ffffff;fill-opacity:1;stroke:#ffffff;stroke-opacity:1"
       x="-761.61969"
       y="35.476051"
       id="text3088-2"
       sodipodi:linespacing="125%"><tspan
         id="tspan3090-9"
         x="-761.61969"
         y="35.476051"
         style="font-size:17.0417347px;stroke:#ffffff;stroke-opacity:1">W</tspan></text>
    <text
       id="text3092-1"
       y="-378.91388"
       x="-811.17365"
       style="font-style:normal;font-variant:normal;font-weight:normal;font-stretch:normal;font-size:15.33754826px;line-height:125%;font-family:'Liberation Sans';-inkscape-font-specification:'Liberation Sans';text-align:start;letter-spacing:0px;word-spacing:0px;writing-mode:lr-tb;text-anchor:start;fill:#ffffff;fill-opacity:1;stroke:#ffffff;stroke-opacity:1"
       xml:space="preserve"
       transform="matrix(-0.49996226,-0.86609101,0.8659596,-0.50003809,0,0)"
       sodipodi:linespacing="125%"><tspan
         style="font-size:17.0417099px;stroke:#ffffff;stroke-opacity:1"
         y="-378.91388"
         x="-811.17365"
         id="tspan3094-2">24</tspan></text>
    <text
       transform="matrix(-0.86595985,-0.50003766,0.49996183,-0.86609126,0,0)"
       xml:space="preserve"
       style="font-style:normal;font-variant:normal;font-weight:normal;font-stretch:normal;font-size:15.33759022px;line-height:125%;font-family:'Liberation Sans';-inkscape-font-specification:'Liberation Sans';text-align:start;letter-spacing:0px;word-spacing:0px;writing-mode:lr-tb;text-anchor:start;fill:#ffffff;fill-opacity:1;stroke:#ffffff;stroke-opacity:1"
       x="-646.09467"
       y="-763.03394"
       id="text3096-7"
       sodipodi:linespacing="125%"><tspan
         id="tspan3098-0"
         x="-646.09467"
         y="-763.03394"
         style="font-size:17.04175568px;stroke:#ffffff;stroke-opacity:1">21</tspan></text>
    <text
       id="text3100-9"
       y="-1013.1514"
       x="-305.55142"
       style="font-style:normal;font-variant:normal;font-weight:normal;font-stretch:normal;font-size:15.33757401px;line-height:125%;font-family:'Liberation Sans';-inkscape-font-specification:'Liberation Sans';text-align:start;letter-spacing:0px;word-spacing:0px;writing-mode:lr-tb;text-anchor:start;fill:#ffffff;fill-opacity:1;stroke:#ffffff;stroke-opacity:1"
       xml:space="preserve"
       transform="scale(-0.99992416,-1.0000758)"
       sodipodi:linespacing="125%"><tspan
         style="font-size:17.04173851px;stroke:#ffffff;stroke-opacity:1"
         y="-1013.1514"
         x="-305.55142"
         id="tspan3102-3">S</tspan></text>
    <text
       transform="matrix(-0.8659596,0.50003809,-0.49996226,-0.86609101,0,0)"
       xml:space="preserve"
       style="font-style:normal;font-variant:normal;font-weight:normal;font-stretch:normal;font-size:15.3375597px;line-height:125%;font-family:'Liberation Sans';-inkscape-font-specification:'Liberation Sans';text-align:start;letter-spacing:0px;word-spacing:0px;writing-mode:lr-tb;text-anchor:start;fill:#ffffff;fill-opacity:1;stroke:#ffffff;stroke-opacity:1"
       x="107.61672"
       y="-1061.9983"
       id="text3104-6"
       sodipodi:linespacing="125%"><tspan
         id="tspan3106-0"
         x="107.61672"
         y="-1061.9983"
         style="font-size:17.04171944px;stroke:#ffffff;stroke-opacity:1">15</tspan></text>
    <text
       id="text3108-6"
       y="-894.76758"
       x="492.25153"
       style="font-style:normal;font-variant:normal;font-weight:normal;font-stretch:normal;font-size:15.33758831px;line-height:125%;font-family:'Liberation Sans';-inkscape-font-specification:'Liberation Sans';text-align:start;letter-spacing:0px;word-spacing:0px;writing-mode:lr-tb;text-anchor:start;fill:#ffffff;fill-opacity:1;stroke:#ffffff;stroke-opacity:1"
       xml:space="preserve"
       transform="matrix(-0.49996183,0.86609126,-0.86595985,-0.50003766,0,0)"
       sodipodi:linespacing="125%"><tspan
         style="font-size:17.04174995px;stroke:#ffffff;stroke-opacity:1"
         y="-894.76758"
         x="492.25153"
         id="tspan3110-2">12</tspan></text>
    <text
       transform="matrix(0,1.0000758,-0.99992416,0,0,0)"
       xml:space="preserve"
       style="font-style:normal;font-variant:normal;font-weight:normal;font-stretch:normal;font-size:15.33758068px;line-height:125%;font-family:'Liberation Sans';-inkscape-font-specification:'Liberation Sans';text-align:start;letter-spacing:0px;word-spacing:0px;writing-mode:lr-tb;text-anchor:start;fill:#ffffff;fill-opacity:1;stroke:#ffffff;stroke-opacity:1"
       x="747.49054"
       y="-560.73212"
       id="text3112-6"
       sodipodi:linespacing="125%"><tspan
         id="tspan3114-1"
         x="747.49054"
         y="-560.73212"
         style="font-size:17.04174042px;stroke:#ffffff;stroke-opacity:1">E</tspan></text>
    <text
       id="text3116-8"
       y="-145.44206"
       x="796.7287"
       style="font-style:normal;font-variant:normal;font-weight:normal;font-stretch:normal;font-size:15.33756542px;line-height:125%;font-family:'Liberation Sans';-inkscape-font-specification:'Liberation Sans';text-align:start;letter-spacing:0px;word-spacing:0px;writing-mode:lr-tb;text-anchor:start;fill:#ffffff;fill-opacity:1;stroke:#ffffff;stroke-opacity:1"
       xml:space="preserve"
       transform="matrix(0.49996226,0.86609101,-0.8659596,0.50003809,0,0)"
       sodipodi:linespacing="125%"><tspan
         style="font-size:17.04172134px;stroke:#ffffff;stroke-opacity:1"
         y="-145.44206"
         x="796.7287"
         id="tspan3118-7">6</tspan></text>
    <text
       transform="matrix(0.86595985,0.50003766,-0.49996183,0.86609126,0,0)"
       xml:space="preserve"
       style="font-style:normal;font-variant:normal;font-weight:normal;font-stretch:normal;font-size:15.3376112px;line-height:125%;font-family:'Liberation Sans';-inkscape-font-specification:'Liberation Sans';text-align:start;letter-spacing:0px;word-spacing:0px;writing-mode:lr-tb;text-anchor:start;fill:#ffffff;fill-opacity:1;stroke:#ffffff;stroke-opacity:1"
       x="631.43744"
       y="239.01701"
       id="text3120-9"
       sodipodi:linespacing="125%"><tspan
         id="tspan3122-2"
         x="631.43744"
         y="239.01701"
         style="font-size:17.04177094px;stroke:#ffffff;stroke-opacity:1">3</tspan></text>
    <path
       style="fill:#ffffff;fill-opacity:1;fill-rule:nonzero;stroke:#ffffff;stroke-width:2.13021708;stroke-linecap:butt;stroke-linejoin:miter;stroke-miterlimit:4;stroke-dasharray:none;stroke-dashoffset:0;stroke-opacity:1"
       d="m 300.0691,453.40932 -0.0128,18.71026 c 0.009,0 0.017,0 0.0255,0 z m -51.90264,4.55176 3.17165,18.04644 c 0.009,0 0.017,-0.0128 0.0255,-0.0128 l -3.1976,-18.03325 z m 103.80528,0 -3.33013,18.7631 c 0.0128,0 0.0255,0 0.0383,0 l 3.2905,-18.7631 z m -154.11505,13.48146 6.14307,16.94547 c 0.0128,-0.004 0.0255,-0.009 0.0383,-0.0128 z m 204.42526,0 -6.6739,18.29911 c 0.009,0 0.017,0.009 0.0255,0.0128 l 6.64706,-18.31188 z m -251.64476,22.01448 8.91641,15.48573 c 0.009,-0.004 0.017,-0.009 0.0255,-0.0128 l -8.94325,-15.47209 z m 298.86212,0 -9.97292,17.34256 m -331.55706,12.54112 11.43669,13.66765 c 0.009,-0.009 0.017,-0.017 0.0255,-0.0255 L 107.96844,523.342 Z m 384.19797,0 -13.22509,15.73711 m -407.816541,21.11205 13.63897,11.46484 c 0.0085,-0.009 0.01695,-0.017 0.02547,-0.0255 L 71.124817,560.18986 Z m 441.743641,13.53642 c 0,0.009 0,0.0213 0,0.0255 l 16.13305,-13.562 c -5.32941,4.49254 -10.76105,9.03282 -16.13305,13.53643 z m -471.621973,29.13975 15.469656,8.94418 c 0.0043,-0.009 0.0085,-0.017 0.01279,-0.0255 l -15.483246,-8.91733 z m 517.639693,0 -18.65928,10.76182 c 0,0.009 0,0.017 0,0.0255 l 18.6465,-10.78866 z m -539.650408,47.22666 16.929256,6.18321 c 0.0043,-0.0128 0.0085,-0.0255 0.01279,-0.0383 L 19.23578,650.09358 Z m 561.662398,0 -20.68284,7.51087 c 0,0.0128 0,0.0255 0,0.0383 l 20.67007,-7.55007 z M 5.7567796,700.41053 23.787699,703.60866 c 0,-0.009 0.01277,-0.017 0.01277,-0.0255 L 5.7563476,700.41141 Z m 588.6212404,0 -22.12702,3.88794 c 0,0.0128 0,0.0255 0,0.0383 l 22.12702,-3.92799 z m -18.38238,51.88452 c 0,0.017 0,0.034 0,0.0524 l 22.93644,-0.0255 -22.93644,-0.0255 z m -556.082512,0.0128 -18.7069989,0.0128 18.7069989,0.0128 c 0,-0.009 0,-0.017 0,-0.0255 z m 551.609392,47.87472 c 0,0.0128 0,0.0255 0,0.0383 l 22.8555,4.0081 -22.8555,-4.04772 z M 24.51703,800.89961 5.7567796,804.23025 24.51703,800.93966 c 0,-0.0128 0,-0.0255 0,-0.0383 z m 534.37,45.60971 0,0.0426 22.02478,7.99745 -22.012,-8.04005 z m -521.354083,1.3677 -18.296325,6.67235 18.309105,-6.64678 c 0,0 -0.0085,0 -0.01279,-0.0426 z m 500.884253,42.04516 -0.0427,0.0426 20.49965,11.81083 -20.46983,-11.85343 z m -479.85592,1.83212 -17.313943,10.0213 17.327107,-9.99574 c -0.0043,0 -0.0085,0 -0.01279,-0.0426 z m 452.2504,37.39241 c 0,0 0,0 -0.0427,0.0426 l 18.22902,15.27481 -18.20346,-15.30037 z m -423.950993,2.07073 -15.735018,13.22964 15.761729,-13.19982 c -0.0085,0 -0.01704,-0.0426 -0.02556,-0.0426 z m 390.035393,31.84489 c 0,0 0,0 -0.0425,0.0427 l 15.30104,18.20195 -15.27122,-18.23178 z m -355.394,2.08351 -13.53275,16.14827 13.5595,-16.13549 c -0.009,0 -0.0213,0 -0.0255,0 z m 316.1899,25.53047 -0.0425,0.0426 11.84993,20.46859 -11.81159,-20.49842 z m -276.29418,1.83638 -10.76061,18.66211 10.78745,-18.64933 c -0.009,0 -0.017,0 -0.0255,0 z m 232.88365,18.64931 c -0.0128,0 -0.0255,0 -0.0383,0 l 8.04053,22.0196 -8.00049,-22.0324 z m -188.91547,1.3422 -7.50929,20.6902 7.54934,-20.6775 c -0.0128,0 -0.0255,0 -0.0384,0 z m 142.59827,11.308 c -0.0128,0 -0.0255,0 -0.0383,0 l 4.04668,22.8505 -4.00748,-22.8633 z m -95.91001,0.7286 -3.88778,22.1346 3.92783,-22.1346 c -0.0128,0 -0.0255,0 -0.0383,0 z m 47.98845,3.741 0.0255,22.9441 0.0255,-22.9441 c -0.017,0 -0.034,0 -0.0528,0 z"
       id="path3181-0"
       inkscape:connector-curvature="0" />
    <path
       id="path5004-2"
       d="m 273.92352,453.41357 0.78854,9.08863 c 0.004,0 0.009,0 0.0128,0 l -0.80176,-9.08863 z m 52.29244,0 -0.78813,8.88838 c 0.004,0 0.009,0 0.0128,0 l 0.77491,-8.88838 z m 51.49196,9.07499 -2.25829,8.38049 m -153.02957,-8.38049 2.39205,8.95483 c 0,0 0.009,0 0.0128,0 l -2.40568,-8.95483 z m 204.42525,17.88368 -3.59467,7.69833 c 0,0 2.45851,-5.16659 3.59425,-7.69876 m -253.56393,0.0128 3.98234,8.58032 c 0.004,0 0.009,-0.0128 0.0128,-0.0128 l -3.99513,-8.56669 z m -45.28967,26.14316 5.53261,7.93907 c 0.009,-0.004 0.017,-0.009 0.0255,-0.0128 l -5.55945,-7.92587 z m -40.064639,33.61482 6.975847,6.98978 c 0.0043,0 -0.0043,-0.0128 0,-0.0128 l -6.975847,-6.97571 z m -33.609932,40.07114 8.151892,5.72049 c 0.0043,-0.004 0.0098,-0.009 0.01321,-0.0128 L 54.31668,580.2137 Z m 489.353191,1.4968 -4.47738,3.12783 c 0,0 0,0.009 0,0.0128 l 4.47738,-3.14103 z m -515.5058,43.79931 9.073611,4.25011 c 0.0043,-0.009 0.0085,-0.017 0.01277,-0.0255 l -9.087242,-4.22326 z m 541.03239,1.28292 -4.43904,2.05836 c 0,0 0,0.009 0,0.0128 l 4.43904,-2.07158 z m -558.913779,47.86321 9.742447,2.61909 c 0,0 0,-0.009 0,-0.0128 l -9.742447,-2.60588 z m 579.562539,0 -7.6043,2.03154 c 0,0.004 0,0.009 0,0.0128 l 7.59151,-2.04473 z M 1.2086851,726.1668 11.338803,727.06241 c 0,-0.009 0,-0.017 0,-0.0255 l -10.1301179,-0.8688 z m 597.6978349,0 -7.8301,0.68171 c 0,0.004 0,0.009 0,0.0128 l 7.8301,-0.69493 z M 11.338803,777.55792 1.2086851,778.45353 11.338803,777.58477 c 0,-0.009 0,-0.017 0,-0.0255 z m 579.737617,0.21389 c 0,0.004 0,0.009 0,0.0128 l 7.85566,0.68171 -7.85566,-0.69493 z m -571.051252,49.58968 -9.742447,2.6161 9.742447,-2.60332 0,0 z m 562.215792,0.57094 0,0.0426 7.57874,2.01534 -7.57874,-2.04517 z m -544.989607,46.95354 -9.074036,4.23946 9.087243,-4.23946 -0.01278,0 z m 527.493327,0.88625 0,0 7.19534,3.35321 -7.19534,-3.366 z m -502.262692,42.91433 -8.165269,5.72221 8.165269,-5.70942 0,0 z m 476.684982,1.09503 c 0,0 0,0 0,0.0426 l 6.62874,4.62717 -6.61595,-4.65274 z m -32.80711,38.87088 5.84061,5.83724 -5.82697,-5.83724 -0.0128,0 z m -372.82275,31.49979 -5.54582,7.94204 z m 333.81376,1.06944 c -0.004,0 -0.009,0 -0.0128,0 l 4.79774,6.83 -4.78411,-6.84278 z m -290.07435,24.43541 -3.99556,8.594 4.00876,-8.5812 c -0.004,0 -0.009,0 -0.0128,0 z m 246.00095,0.8692 c -0.004,0 -0.009,0 -0.0128,0 l 3.5951,7.6864 -3.58148,-7.6991 z m -198.46536,16.6553 -2.39205,8.9519 2.40525,-8.9519 c -0.004,0 -0.009,0 -0.0128,0 z m 150.63624,0.5582 2.2583,8.3937 -2.24509,-8.3937 c -0.004,0 -0.009,0 -0.0128,0 z m -100.73629,8.3681 -0.78854,9.118 0.80176,-9.118 c -0.004,0 -0.009,0 -0.0128,0 z m 50.70257,0.2003 0.78813,8.9007 -0.76171,-8.9007 c -0.009,0 -0.017,0 -0.0255,0 z"
       style="fill:#ffffff;fill-opacity:1;fill-rule:nonzero;stroke:#ffffff;stroke-width:2.13021708;stroke-linecap:butt;stroke-linejoin:miter;stroke-miterlimit:4;stroke-dasharray:none;stroke-dashoffset:0;stroke-opacity:1"
       inkscape:connector-curvature="0" />
    <path
       style="fill:#ffffff;fill-opacity:1;fill-rule:nonzero;stroke:#ffffff;stroke-width:2.13021708;stroke-linecap:butt;stroke-linejoin:miter;stroke-miterlimit:4;stroke-dasharray:none;stroke-dashoffset:0;stroke-opacity:1"
       d="m 273.92352,453.41357 0.78854,9.08863 c 0.004,0 0.009,0 0.0128,0 l -0.80176,-9.08863 z m 52.29244,0 -0.78813,8.88838 c 0.004,0 0.009,0 0.0128,0 l 0.77491,-8.88838 z m 51.49196,9.07499 -2.25829,8.38049 m -153.02957,-8.38049 2.39205,8.95483 c 0,0 0.009,0 0.0128,0 l -2.40568,-8.95483 z m 204.42525,17.88368 -3.59467,7.69833 c 0,0 2.45851,-5.16659 3.59425,-7.69876 m -253.56393,0.0128 3.98234,8.58032 c 0.004,0 0.009,-0.0128 0.0128,-0.0128 l -3.99513,-8.56669 z m -45.28967,26.14316 5.53261,7.93907 c 0.009,-0.004 0.017,-0.009 0.0255,-0.0128 l -5.55945,-7.92587 z m -40.064639,33.61482 6.975847,6.98978 c 0.0043,0 -0.0043,-0.0128 0,-0.0128 l -6.975847,-6.97571 z m -33.609932,40.07114 8.151892,5.72049 c 0.0043,-0.004 0.0098,-0.009 0.01321,-0.0128 L 54.31668,580.2137 Z m 489.353191,1.4968 -4.47738,3.12783 c 0,0 0,0.009 0,0.0128 l 4.47738,-3.14103 z m -515.5058,43.79931 9.073611,4.25011 c 0.0043,-0.009 0.0085,-0.017 0.01277,-0.0255 l -9.087242,-4.22326 z m 541.03239,1.28292 -4.43904,2.05836 c 0,0 0,0.009 0,0.0128 l 4.43904,-2.07158 z m -558.913779,47.86321 9.742447,2.61909 c 0,0 0,-0.009 0,-0.0128 l -9.742447,-2.60588 z m 579.562539,0 -7.6043,2.03154 c 0,0.004 0,0.009 0,0.0128 l 7.59151,-2.04473 z M 1.2086851,726.1668 11.338803,727.06241 c 0,-0.009 0,-0.017 0,-0.0255 l -10.1301179,-0.8688 z m 597.6978349,0 -7.8301,0.68171 c 0,0.004 0,0.009 0,0.0128 l 7.8301,-0.69493 z M 11.338803,777.55792 1.2086851,778.45353 11.338803,777.58477 c 0,-0.009 0,-0.017 0,-0.0255 z m 579.737617,0.21389 c 0,0.004 0,0.009 0,0.0128 l 7.85566,0.68171 -7.85566,-0.69493 z m -571.051252,49.58968 -9.742447,2.6161 9.742447,-2.60332 0,0 z m 562.215792,0.57094 0,0.0426 7.57874,2.01534 -7.57874,-2.04517 z m -544.989607,46.95354 -9.074036,4.23946 9.087243,-4.23946 -0.01278,0 z m 527.493327,0.88625 0,0 7.19534,3.35321 -7.19534,-3.366 z m -502.262692,42.91433 -8.165269,5.72221 8.165269,-5.70942 0,0 z m 476.684982,1.09503 c 0,0 0,0 0,0.0426 l 6.62874,4.62717 -6.61595,-4.65274 z m -32.80711,38.87088 5.84061,5.83724 -5.82697,-5.83724 -0.0128,0 z m -411.185524,-3.2467 -6.780308,6.91948 z M 467.35087,991.2217 c -0.004,0 -0.009,0 -0.0128,0 l 4.79774,6.83 -4.78411,-6.84278 z m -290.07435,24.4354 -3.99556,8.594 4.00876,-8.5812 c -0.004,0 -0.009,0 -0.0128,0 z m 246.00095,0.8692 c -0.004,0 -0.009,0 -0.0128,0 l 3.5951,7.6864 -3.58148,-7.6991 z m -198.46536,16.6553 -2.39205,8.9519 2.40525,-8.9519 c -0.004,0 -0.009,0 -0.0128,0 z m 150.63624,0.5582 2.2583,8.3937 -2.24509,-8.3937 c -0.004,0 -0.009,0 -0.0128,0 z m -100.73629,8.3681 -0.78854,9.118 0.80176,-9.118 c -0.004,0 -0.009,0 -0.0128,0 z m 50.70257,0.2003 0.78813,8.9007 -0.76171,-8.9007 c -0.009,0 -0.017,0 -0.0255,0 z"
       id="path3114-3"
       inkscape:connector-curvature="0" />
    <path
       id="path3116-7"
       d="m 273.92352,453.41357 0.78854,9.08863 c 0.004,0 0.009,0 0.0128,0 l -0.80176,-9.08863 z m 52.29244,0 -0.78813,8.88838 c 0.004,0 0.009,0 0.0128,0 l 0.77491,-8.88838 z m 51.49196,9.07499 -2.25829,8.38049 m -153.02957,-8.38049 2.39205,8.95483 c 0,0 0.009,0 0.0128,0 l -2.40568,-8.95483 z m 204.42525,17.88368 -3.59467,7.69833 c 0,0 2.45851,-5.16659 3.59425,-7.69876 m -253.56393,0.0128 3.98234,8.58032 c 0.004,0 0.009,-0.0128 0.0128,-0.0128 l -3.99513,-8.56669 z m -45.28967,26.14316 5.53261,7.93907 c 0.009,-0.004 0.017,-0.009 0.0255,-0.0128 l -5.55945,-7.92587 z m -40.064639,33.61482 6.975847,6.98978 c 0.0043,0 -0.0043,-0.0128 0,-0.0128 l -6.975847,-6.97571 z m -33.609932,40.07114 8.151892,5.72049 c 0.0043,-0.004 0.0098,-0.009 0.01321,-0.0128 L 54.31668,580.2137 Z m 489.353191,1.4968 -4.47738,3.12783 c 0,0 0,0.009 0,0.0128 l 4.47738,-3.14103 z m -515.5058,43.79931 9.073611,4.25011 c 0.0043,-0.009 0.0085,-0.017 0.01277,-0.0255 l -9.087242,-4.22326 z m 541.03239,1.28292 -4.43904,2.05836 c 0,0 0,0.009 0,0.0128 l 4.43904,-2.07158 z m -558.913779,47.86321 9.742447,2.61909 c 0,0 0,-0.009 0,-0.0128 l -9.742447,-2.60588 z m 579.562539,0 -7.6043,2.03154 c 0,0.004 0,0.009 0,0.0128 l 7.59151,-2.04473 z M 1.2086851,726.1668 11.338803,727.06241 c 0,-0.009 0,-0.017 0,-0.0255 l -10.1301179,-0.8688 z m 597.6978349,0 -7.8301,0.68171 c 0,0.004 0,0.009 0,0.0128 l 7.8301,-0.69493 z M 11.338803,777.55792 1.2086851,778.45353 11.338803,777.58477 c 0,-0.009 0,-0.017 0,-0.0255 z m 579.737617,0.21389 c 0,0.004 0,0.009 0,0.0128 l 7.85566,0.68171 -7.85566,-0.69493 z m -571.051252,49.58968 -9.742447,2.6161 9.742447,-2.60332 0,0 z m 562.215792,0.57094 0,0.0426 7.57874,2.01534 -7.57874,-2.04517 z m -544.989607,46.95354 -9.074036,4.23946 9.087243,-4.23946 -0.01278,0 z m 527.493327,0.88625 0,0 7.19534,3.35321 -7.19534,-3.366 z m -502.262692,42.91433 -8.165269,5.72221 8.165269,-5.70942 0,0 z m 476.684982,1.09503 c 0,0 0,0 0,0.0426 l 6.62874,4.62717 -6.61595,-4.65274 z m -32.80711,38.87088 5.84061,5.83724 -5.82697,-5.83724 -0.0128,0 z m 5.90877,-415.37399 -6.78166,6.91948 z M 467.35087,991.2217 c -0.004,0 -0.009,0 -0.0128,0 l 4.79774,6.83 -4.78411,-6.84278 z m -290.07435,24.4354 -3.99556,8.594 4.00876,-8.5812 c -0.004,0 -0.009,0 -0.0128,0 z m 246.00095,0.8692 c -0.004,0 -0.009,0 -0.0128,0 l 3.5951,7.6864 -3.58148,-7.6991 z m -198.46536,16.6553 -2.39205,8.9519 2.40525,-8.9519 c -0.004,0 -0.009,0 -0.0128,0 z m 150.63624,0.5582 2.2583,8.3937 -2.24509,-8.3937 c -0.004,0 -0.009,0 -0.0128,0 z m -100.73629,8.3681 -0.78854,9.118 0.80176,-9.118 c -0.004,0 -0.009,0 -0.0128,0 z m 50.70257,0.2003 0.78813,8.9007 -0.76171,-8.9007 c -0.009,0 -0.017,0 -0.0255,0 z"
       style="fill:#ffffff;fill-opacity:1;fill-rule:nonzero;stroke:#ffffff;stroke-width:2.13021708;stroke-linecap:butt;stroke-linejoin:miter;stroke-miterlimit:4;stroke-dasharray:none;stroke-dashoffset:0;stroke-opacity:1"
       inkscape:connector-curvature="0" />
    <path
       style="fill:#ffffff;fill-opacity:1;fill-rule:nonzero;stroke:#ffffff;stroke-width:2.13021708;stroke-linecap:butt;stroke-linejoin:miter;stroke-miterlimit:4;stroke-dasharray:none;stroke-dashoffset:0;stroke-opacity:1"
       d="m 273.92352,453.41357 0.78854,9.08863 c 0.004,0 0.009,0 0.0128,0 l -0.80176,-9.08863 z m 52.29244,0 -0.78813,8.88838 c 0.004,0 0.009,0 0.0128,0 l 0.77491,-8.88838 z m 51.49196,9.07499 -2.25829,8.38049 m -153.02957,-8.38049 2.39205,8.95483 c 0,0 0.009,0 0.0128,0 l -2.40568,-8.95483 z m 204.42525,17.88368 -3.59467,7.69833 c 0,0 2.45851,-5.16659 3.59425,-7.69876 m -253.56393,0.0128 3.98234,8.58032 c 0.004,0 0.009,-0.0128 0.0128,-0.0128 l -3.99513,-8.56669 z m -45.28967,26.14316 5.53261,7.93907 c 0.009,-0.004 0.017,-0.009 0.0255,-0.0128 l -5.55945,-7.92587 z m -40.064639,33.61482 6.975847,6.98978 c 0.0043,0 -0.0043,-0.0128 0,-0.0128 l -6.975847,-6.97571 z m -33.609932,40.07114 8.151892,5.72049 c 0.0043,-0.004 0.0098,-0.009 0.01321,-0.0128 L 54.31668,580.2137 Z m 489.353191,1.4968 -4.47738,3.12783 c 0,0 0,0.009 0,0.0128 l 4.47738,-3.14103 z m -515.5058,43.79931 9.073611,4.25011 c 0.0043,-0.009 0.0085,-0.017 0.01277,-0.0255 l -9.087242,-4.22326 z m 541.03239,1.28292 -4.43904,2.05836 c 0,0 0,0.009 0,0.0128 l 4.43904,-2.07158 z m -558.913779,47.86321 9.742447,2.61909 c 0,0 0,-0.009 0,-0.0128 l -9.742447,-2.60588 z m 579.562539,0 -7.6043,2.03154 c 0,0.004 0,0.009 0,0.0128 l 7.59151,-2.04473 z M 1.2086851,726.1668 11.338803,727.06241 c 0,-0.009 0,-0.017 0,-0.0255 l -10.1301179,-0.8688 z m 597.6978349,0 -7.8301,0.68171 c 0,0.004 0,0.009 0,0.0128 l 7.8301,-0.69493 z M 11.338803,777.55792 1.2086851,778.45353 11.338803,777.58477 c 0,-0.009 0,-0.017 0,-0.0255 z m 579.737617,0.21389 c 0,0.004 0,0.009 0,0.0128 l 7.85566,0.68171 -7.85566,-0.69493 z m -571.051252,49.58968 -9.742447,2.6161 9.742447,-2.60332 0,0 z m 562.215792,0.57094 0,0.0426 7.57874,2.01534 -7.57874,-2.04517 z m -544.989607,46.95354 -9.074036,4.23946 9.087243,-4.23946 -0.01278,0 z m 527.493327,0.88625 0,0 7.19534,3.35321 -7.19534,-3.366 z m -502.262692,42.91433 -8.165269,5.72221 8.165269,-5.70942 0,0 z m 476.684982,1.09503 c 0,0 0,0 0,0.0426 l 6.62874,4.62717 -6.61595,-4.65274 z m -32.80711,38.87088 5.84061,5.83724 -5.82697,-5.83724 -0.0128,0 z m -34.44214,-450.541 -5.74391,7.80315 z m -4.56685,483.11023 c -0.004,0 -0.009,0 -0.0128,0 l 4.79774,6.83 -4.78411,-6.84278 z m -290.07435,24.43541 -3.99556,8.594 4.00876,-8.5812 c -0.004,0 -0.009,0 -0.0128,0 z m 246.00095,0.8692 c -0.004,0 -0.009,0 -0.0128,0 l 3.5951,7.6864 -3.58148,-7.6991 z m -198.46536,16.6553 -2.39205,8.9519 2.40525,-8.9519 c -0.004,0 -0.009,0 -0.0128,0 z m 150.63624,0.5582 2.2583,8.3937 -2.24509,-8.3937 c -0.004,0 -0.009,0 -0.0128,0 z m -100.73629,8.3681 -0.78854,9.118 0.80176,-9.118 c -0.004,0 -0.009,0 -0.0128,0 z m 50.70257,0.2003 0.78813,8.9007 -0.76171,-8.9007 c -0.009,0 -0.017,0 -0.0255,0 z"
       id="path3118-5"
       inkscape:connector-curvature="0" />
  </g>
  <path
     id="rect4138"
     d="M 0,2.5702537e-5 0,950.00002 l 799.99999,0 0,-949.999994297463 z M 112,250 C 253.25599,75.680943 536.52339,63.397862 688,250 l -48,40 0,290 -480,0 0,-290 z"
     style="fill:#000000;fill-opacity:1;stroke:none;stroke-width:7.65867233;stroke-miterlimit:4;stroke-dasharray:none;stroke-opacity:1"
     inkscape:connector-curvature="0"
     sodipodi:nodetypes="cccccccccccc" />
  <path
     id="hdgBug"
     d="M 400.13607,114.33486 378.52449,91.109558 370,91 370.30403,114.23269 430,115 429.67141,91.766979 421.14692,91.657414 Z"
     style="opacity:1;fill:#55bbee;fill-opacity:1;stroke:none;stroke-width:3;stroke-linecap:square;stroke-linejoin:miter;stroke-miterlimit:4;stroke-dasharray:none;stroke-opacity:1"
     inkscape:transform-center-y="-387"
     inkscape:connector-curvature="0"
     sodipodi:nodetypes="cccccccc" />
  <path
     style="display:inline;fill:none;stroke:#ffffff;stroke-width:2.42526913;stroke-linecap:round;stroke-linejoin:round;stroke-miterlimit:4;stroke-dasharray:none;stroke-opacity:1"
     d="m 568.78589,428.77015 c -3.12687,-39.82577 -23.54605,-75.46514 -54.69792,-101.14809 -31.15186,-25.68293 -73.03642,-41.40943 -119.0941,-41.40943 -46.0581,0 -87.93955,15.7265 -119.08824,41.40943 -31.14868,25.68295 -51.56456,61.32232 -54.69153,101.14809"
     id="path3171"
     inkscape:connector-curvature="0" />
  <path
     id="path4476"
     d="M 172,629.278 172,805"
     style="fill:none;fill-rule:evenodd;stroke:#55bbee;stroke-width:3;stroke-linecap:butt;stroke-linejoin:miter;stroke-miterlimit:4;stroke-dasharray:none;stroke-opacity:1"
     inkscape:connector-curvature="0"
     sodipodi:nodetypes="cc" />
  <path
     id="path4476-6"
     d="m 632,630 0,175"
     style="fill:none;fill-rule:evenodd;stroke:#55bbee;stroke-width:3;stroke-linecap:butt;stroke-linejoin:miter;stroke-miterlimit:4;stroke-dasharray:none;stroke-opacity:1"
     inkscape:connector-curvature="0"
     sodipodi:nodetypes="cc" />
  <path
     id="path4478-3-6"
     d="m 50,630 700,0"
     style="fill:none;fill-rule:evenodd;stroke:#55bbee;stroke-width:3;stroke-linecap:butt;stroke-linejoin:miter;stroke-miterlimit:4;stroke-dasharray:none;stroke-opacity:1"
     inkscape:connector-curvature="0"
     sodipodi:nodetypes="cc" />
  <path
     id="path5496"
     d="m 227.29017,712.59448 -31.19503,0 -8.80418,-10.66337 -5.76074,0 2.82602,14.83598 6.739,7.64981 50.43378,0 z"
     style="fill:none;fill-rule:evenodd;stroke:#ffffff;stroke-width:2.51423979;stroke-linecap:butt;stroke-linejoin:miter;stroke-miterlimit:4;stroke-dasharray:none;stroke-opacity:1"
     inkscape:connector-curvature="0" />
  <text
     sodipodi:linespacing="125%"
     xml:space="preserve"
     style="font-style:normal;font-variant:normal;font-weight:normal;font-stretch:normal;font-size:50.79999924px;line-height:125%;font-family:'Liberation Sans';-inkscape-font-specification:'Liberation Sans';text-align:start;letter-spacing:0px;word-spacing:0px;writing-mode:lr-tb;text-anchor:start;display:inline;fill:#ffffff;fill-opacity:1;stroke:none"
     x="427.64893"
     y="79.658203"
     id="hdg"><tspan
       id="tspan3013"
       x="400.08301"
       y="79.658203"
       style="font-size:35px;text-align:center;text-anchor:middle;fill:#ffffff;fill-opacity:1">999</tspan></text>
  <path
     inkscape:connector-curvature="0"
     id="path5508"
     d="M 400.05,86.777778 400.05,115"
     style="fill:none;fill-rule:evenodd;stroke:#ffffff;stroke-width:2.82222223;stroke-linecap:butt;stroke-linejoin:miter;stroke-miterlimit:4;stroke-dasharray:none;stroke-opacity:1" />
  <rect
     y="50.089062"
     x="354.18906"
     height="35.277412"
     width="88.899635"
     id="rect4224"
     style="fill:none;fill-opacity:1;stroke:#ffffff;stroke-width:2.82222223;stroke-miterlimit:4;stroke-dasharray:none;stroke-opacity:1" />
  <path
     style="display:inline;fill:none;stroke:#ffffff;stroke-width:2.99989939;stroke-linecap:butt;stroke-linejoin:miter;stroke-miterlimit:4;stroke-dasharray:none;stroke-opacity:1"
     d="m 395.43519,431.24352 0,-13.61844 4.78637,-5.37058 4.95734,5.56241 0,13.81017 21.32115,13.81223 0,7.47849 -24.18552,-7.27145 0,22.04065 8.56541,5.54888 0,4.61699 -11.40577,-3.42923 -11.83789,3.55912 0,-4.34968 9.81578,-6.35882 0,-21.837 -23.95211,7.20137 0,-6.43404 z"
     id="airplane"
     inkscape:connector-curvature="0"
     inkscape:label="#path5610" />
  <path
     style="display:inline;fill:#55bbee;fill-opacity:1;fill-rule:evenodd;stroke:#4acee2;stroke-width:3.84678078;stroke-linecap:butt;stroke-linejoin:miter;stroke-miterlimit:4;stroke-dasharray:none;stroke-opacity:1"
     d="m 100.64116,169.36135 -16.473779,16.44542 2.955325,2.75587 -12.424279,6.71269 6.515881,-12.22233 2.953073,2.75377"
     id="arrowL"
     inkscape:connector-curvature="0"
     sodipodi:nodetypes="cccccc" />
  <path
     style="display:inline;fill:#55bbee;fill-opacity:1;fill-rule:evenodd;stroke:#4acee2;stroke-width:3.84678078;stroke-linecap:butt;stroke-linejoin:miter;stroke-miterlimit:4;stroke-dasharray:none;stroke-opacity:1"
     d="m 699.35887,169.36135 16.47378,16.44542 -2.95533,2.75587 12.42428,6.71269 -6.51588,-12.22233 -2.95307,2.75377"
     id="arrowR"
     inkscape:connector-curvature="0"
     sodipodi:nodetypes="cccccc" />
</svg>
